<?xml version="1.0" encoding="UTF-8"?><svg version="1.1" width="505px" height="508px" viewBox="0 0 505.0 508.0" xmlns="http://www.w3.org/2000/svg" xmlns:xlink="http://www.w3.org/1999/xlink"><defs><clipPath id="i0"><path d="M1366,0 L1366,768 L0,768 L0,0 L1366,0 Z"></path></clipPath><clipPath id="i1"><path d="M251.175954,0 L252.899531,0.00548716159 C309.815386,0.367701763 370.412222,18.6687368 416.493263,56.7297167 L418.331789,58.2650708 C478.65904,109.200873 504.943001,186.677626 505,260.530245 L505,260.997998 L504.992143,262.997867 C504.521543,328.962248 483.149152,391.758022 446.463786,429.83332 L445.829614,430.487495 C435.694421,440.878531 426.124109,447.648437 418.529961,453.020127 L415.791324,454.929017 C325.257659,517.104653 219.352104,498.643573 196.665432,494.100905 L195.640829,493.895701 C161.519639,487.05905 96.9424441,473.679455 50.1245734,419.400511 L49.0845053,418.184486 C14.9563566,377.944164 0.0294949347,326.699272 0,274.795332 L0,274.489966 L0.00588249814,272.837842 C0.365548581,218.31154 17.0972488,163.210654 45.2153309,119.503056 L45.5329182,119.008271 C56.4444421,101.979159 110.077999,16.0031555 217.973727,2.09875457 C228.790912,0.704649889 239.912789,0 251.175954,0 Z"></path></clipPath><clipPath id="i2"><path d="M37.7493086,2.17542016 C69.0921319,-7.82368808 105.161054,17.5957008 118.31177,58.9509052 C119.179784,61.6808972 119.926433,64.4119877 120.554642,67.1352059 C126.530214,93.0428518 142.66972,115.471552 165.071943,129.873029 C190.131762,145.98313 211.287802,173.387219 222.221966,207.773548 C233.277494,242.539388 231.684764,277.533703 220.202449,305.341835 C215.338352,317.121333 212.354131,329.581132 211.871231,342.293024 C211.017839,364.757423 199.158269,384.010714 180.175645,390.066968 C162.578664,395.680368 143.426423,388.496747 129.835942,373.214687 C121.658258,364.017989 111.782381,356.407624 100.83067,350.74809 C71.8760283,335.785127 46.8697631,306.063328 34.6433569,267.613866 C26.4455673,241.833639 25.2012126,215.927092 29.7876685,192.918598 C34.9189866,167.172057 29.461592,140.552621 15.515242,118.358621 C11.1453783,111.404391 7.49748897,103.616445 4.80882014,95.1599137 C-8.34171318,53.8050754 6.40611972,12.1741623 37.7493086,2.17542016 Z"></path></clipPath><linearGradient id="i3" x1="114.859px" y1="0px" x2="114.859px" y2="391.966533px" gradientUnits="userSpaceOnUse"><stop stop-color="#FF9494" offset="0%"></stop><stop stop-color="#FF5B5B" offset="100%"></stop></linearGradient><clipPath id="i4"><path d="M1.13322548,0 C13.9189333,26.0251791 25.8556359,52.4417693 37.5150638,78.9832156 C39.2656779,82.9636362 40.9777988,86.9607311 42.6791021,90.962479 L46.0754856,98.9686169 L50.3219739,108.976147 L54.484567,119.019376 C57.2333699,125.725541 60.0755725,132.393627 62.7483396,139.131281 L70.768286,159.343144 C75.9425569,172.886006 81.2316127,186.384015 86.1527357,200.023906 C88.6228017,206.839366 91.226113,213.605579 93.5572675,220.4723 L100.64541,241.034566 C109.817774,268.545203 118.301063,296.300976 125.359595,324.434429 L124.147044,324.75316 L118.062355,303.906764 L116.552971,298.693747 L114.913267,293.518259 L111.614302,283.175155 L108.335259,272.827841 C107.248642,269.376906 106.033532,265.966247 104.888791,262.533802 C102.55325,255.683741 100.272725,248.815922 97.8931344,241.981788 C88.1965627,214.704569 78.1368105,187.556784 67.51666,160.62118 C62.1031322,147.194021 56.8058514,133.721642 51.2985584,120.331463 L47.1959166,110.277982 L43.0086485,100.258736 C40.2212794,93.5774686 37.4335447,86.8963844 34.5783648,80.2436766 C28.9820588,66.8893804 23.2894285,53.5740788 17.4878624,40.3060102 C11.7561176,27.0075515 5.89734193,13.7601702 0,0.536771492 L1.13322548,0 Z"></path></clipPath><clipPath id="i5"><path d="M52.2797468,0.43918395 C86.3611374,-4.21326282 118.971528,28.6281087 125.117266,73.7925234 C125.522851,76.7738753 125.803233,79.7345399 125.962981,82.6655465 C127.481869,110.548739 140.095034,136.678453 160.597459,155.641938 C183.531932,176.855396 200.422658,209.042463 205.532773,246.59578 C210.699368,284.564308 202.794572,320.47271 185.986827,347.152193 C178.867064,358.453686 173.562289,370.79998 170.789177,383.861725 C165.888525,406.943082 150.223876,424.705605 129.58254,427.523472 C110.448393,430.135565 92.0024069,419.228046 80.7363179,400.952917 C73.9570707,389.955692 65.1449631,380.290876 54.8746503,372.448374 C27.7223851,351.714568 7.27954589,316.431179 1.56553059,274.44016 C-2.26550263,246.28547 1.08975867,219.262175 9.93330406,196.295055 C19.8291041,170.595015 18.9711428,142.069601 8.57580961,116.580644 C5.31870026,108.59388 2.95428014,99.876286 1.69767931,90.6407773 C-4.44787556,45.4765456 18.1983561,5.09181379 52.2797468,0.43918395 Z"></path></clipPath><linearGradient id="i6" x1="103.549092px" y1="0px" x2="103.549092px" y2="427.907717px" gradientUnits="userSpaceOnUse"><stop stop-color="#FF9494" offset="0%"></stop><stop stop-color="#FF5B5B" offset="100%"></stop></linearGradient><clipPath id="i7"><path d="M1.26391196,0 C9.77790808,29.2412312 17.3469404,58.7329069 24.6085395,88.3036704 C25.699726,92.7387357 26.7480108,97.1840824 27.7843857,101.632316 L29.8504385,110.530441 L32.4340098,121.652705 L34.9249125,132.796755 L35.747964,136.513186 L37.4132792,143.941766 C38.2443036,147.656418 39.0648411,151.373405 39.8387244,155.100782 L44.4836694,177.463392 C47.3898444,192.41116 50.4228676,207.333664 53.0514023,222.335622 C54.3761795,229.833946 55.8468137,237.305176 57.0197021,244.831327 L60.6416369,267.387446 C65.1670449,297.509261 68.9386752,327.75941 71.1751505,358.141372 L69.8688339,358.25085 L67.3315056,335.583056 L66.709511,329.916748 L65.9464116,324.265819 L64.3990105,312.96817 L62.8729944,301.669789 C62.371268,297.903052 61.7297161,294.154439 61.1649312,290.396123 C59.9850972,282.886632 58.864849,275.368535 57.6365788,267.867282 C52.5292047,237.892109 47.0244706,207.984857 40.9045047,178.194954 C37.7307422,163.323528 34.684559,148.426105 31.4075268,133.575732 L28.9804138,122.431865 L26.459901,111.307954 C24.7841895,103.891097 23.1079297,96.4740575 21.3570963,89.0740437 C17.9819122,74.2447243 14.5005339,59.438106 10.8983391,44.6607795 C7.37382506,29.8647795 3.70893732,15.0978882 0,0.349487305 L1.26391196,0 Z"></path></clipPath><clipPath id="i8"><path d="M301.710134,0 L301.920256,0.00516093342 C304.147767,0.114831296 305.920249,1.95860903 305.920249,4.21691492 L305.920249,406.885789 L305.915096,407.09625 C305.805603,409.327349 303.964798,411.102521 301.710134,411.102521 L4.21011542,411.102521 L3.99997768,411.097361 C1.77230973,410.987701 0,409.144095 0,406.885789 L0,4.21691492 L0.00515212348,4.00645345 C0.114635396,1.77534422 1.95527366,0 4.21011542,0 L301.710134,0 Z"></path></clipPath><clipPath id="i9"><path d="M301.710134,0 C304.035256,0 305.920249,1.88803697 305.920249,4.21691492 L305.920249,406.885789 C305.920249,409.214667 304.035256,411.102521 301.710134,411.102521 L4.21011542,411.102521 C1.88480986,411.102521 0,409.214667 0,406.885789 L0,4.21691492 C0,1.88803697 1.88480986,0 4.21011542,0 Z"></path></clipPath><clipPath id="i10"><path d="M216.306789,0 C223.979639,0 230.199585,6.23017417 230.199585,13.9152334 L230.199585,281.27229 C230.199585,288.957532 223.979639,295.187523 216.306789,295.187523 L13.892796,295.187523 C6.21994564,295.187523 0,288.957532 0,281.27229 L0,13.9152334 C0,6.23017417 6.21994564,0 13.892796,0 L216.306789,0 Z"></path></clipPath><clipPath id="i11"><path d="M191.080641,0 L191.288665,0.00510889015 C193.493928,0.113673343 195.248535,1.93885928 195.248535,4.17444187 L195.248535,246.194858 L195.243434,246.403218 C195.135045,248.612042 193.312797,250.369483 191.080641,250.369483 L4.16771086,250.369483 L3.9596875,250.364374 C1.75443539,250.25581 0,248.430618 0,246.194858 L0,4.17444187 L0.00510016413,3.9660982 C0.113479311,1.75744101 1.93555576,0 4.16771086,0 L191.080641,0 Z"></path></clipPath><clipPath id="i12"><path d="M9.15189239,0 L9.41702076,0.00377261813 C14.3489552,0.14429995 18.3039676,4.19295799 18.3039676,9.16667305 L18.300201,9.43222961 C18.1599002,14.3721293 14.1177672,18.3335292 9.15189239,18.3335292 L8.88676419,18.3297566 C3.95483596,18.1892292 0,14.140568 0,9.16667305 C0,4.10414165 4.09734121,0 9.15189239,0 Z"></path></clipPath><clipPath id="i13"><path d="M134.261447,0 L134.581113,0.00317671203 C142.764521,0.165986306 149.282351,6.56674775 149.282351,14.551963 L149.282351,86.3297719 L149.278993,86.6436108 C149.106907,94.6821163 142.342027,101.413348 133.992398,101.749137 L16.2520983,106.484699 L15.9327732,106.494637 C7.11828548,106.688593 0,100.179443 0,91.8203292 L0,17.5516223 L0.00324271108,17.24278 C0.178073882,8.92239717 7.4001273,2.11029936 16.2520983,1.96291403 L133.992398,0.00219688196 C134.08269,0 134.17152,0 134.261447,0 Z"></path></clipPath><clipPath id="i14"><path d="M83.7676616,0 L84.4927549,0.00563180814 C108.373205,0.376852381 127.490059,19.0523947 127.490059,41.9551363 L127.490059,58.1613515 L127.485814,58.3899875 C127.361642,61.7293863 124.529079,64.4404876 121.048038,64.4923991 L120.816446,64.491923 C117.357515,64.4256697 114.586642,61.7140519 114.586642,58.3352713 L114.586642,42.0805417 L114.582522,41.5922688 C114.310897,25.5104334 100.645278,12.5476176 83.7676616,12.5963719 L45.4112693,12.7073145 L44.8876193,12.71289 C27.6391682,13.0305045 13.5950501,26.5424569 13.5950501,43.0630971 L13.5950501,59.6975212 L13.5907695,59.9271077 C13.4627066,63.3569575 10.4773728,66.1436584 6.80776066,66.198461 L6.56892219,66.1981403 C2.92213936,66.133796 0,63.3505658 0,59.8807777 L0,43.1954592 L0.00613007154,42.4822704 C0.410185145,18.9919831 20.7363136,0 45.4112693,0 L83.7676616,0 Z"></path></clipPath><clipPath id="i15"><path d="M15.6810904,0 L16.0052518,0.00324897588 C24.0873999,0.165432882 30.5069696,6.37971345 30.5069696,14.1761151 L30.5025781,14.5291105 C30.3740014,19.6931491 27.4327239,24.2647748 23.0856222,26.8678683 L22.8773217,26.9979993 C20.9631832,28.2449139 19.8962543,30.3873806 20.2832653,32.5433298 L23.6427305,51.2635102 L23.6720736,51.4551152 C23.963421,53.7501688 22.0818384,55.8764873 19.6221562,55.9648376 L10.9825914,56.274781 L10.7833142,56.2774178 C8.34196285,56.2542961 6.52200233,54.1883117 6.9388042,51.8453178 L10.3008283,32.949753 L10.3368111,32.7192331 C10.6260372,30.5678338 9.61418694,28.4327301 7.64542512,27.4009784 L7.35981677,27.2472953 C2.72749896,24.6894507 -0.294745825,19.8056544 0.0228387867,14.1735521 L0.0447496544,13.8523135 C0.626126696,6.58870671 6.94742657,0.556606416 14.5685189,0.0378981753 C14.9428488,0.0124509593 15.3129749,0 15.6810904,0 Z"></path></clipPath><clipPath id="i16"><path d="M7.06797765,0 C7.37321707,0.153463903 19.2170848,6.16140805 21.6277317,15.7342517 L21.6595486,15.8987873 C21.6748479,16.0081703 21.6791533,16.1168753 21.6774474,16.2245225 L21.1032034,16.2884962 C12.1291691,17.2649367 4.23134978,17.0358394 0.352702814,16.6886138 L0.326154266,16.5939648 L0.303169894,16.4976682 L0.278655833,16.3649882 C-0.152138755,13.9680594 -0.443713022,8.76420631 2.26602609,0.377131403 L7.06797765,0 Z"></path></clipPath><clipPath id="i17"><path d="M21.3245618,0 L21.3245618,2.5761004 L0,2.5761004 L0,0 L21.3245618,0 Z"></path></clipPath><clipPath id="i18"><path d="M21.3245618,0 C21.3108534,0.867585301 20.704395,1.63612784 19.8747643,1.74469042 C16.114649,2.23715813 7.158695,3.19225256 1.52382271,2.00538708 C0.788505597,1.8505069 0.213850614,1.24343519 0,0.463908241 C3.96117137,0.818521604 12.1143631,1.0499265 21.3245618,0 Z"></path></clipPath><clipPath id="i19"><path d="M6.73282155,0 L8.14661172,8.70715858 L8.16635813,8.86287379 C8.26559058,9.94839045 7.55424386,10.9280897 6.55278493,11.0755804 L6.2022781,11.1208737 C5.15338855,11.2383108 4.13735138,11.1947796 3.40186977,11.1257425 L3.26993492,11.1069342 C2.66228539,10.9904057 2.17281972,10.4769911 2.03395695,9.80633185 L0,0 L6.73282155,0 Z"></path></clipPath><linearGradient id="i20" x1="5.69322984px" y1="-9.4387227px" x2="1.55242318px" y2="26.7577787px" gradientUnits="userSpaceOnUse"><stop stop-color="#FDBABA" offset="0%"></stop><stop stop-color="#FF918E" offset="100%"></stop></linearGradient><clipPath id="i21"><path d="M0.00118602462,0 C1.41936287,0.580526058 4.16231686,1.2060882 9.46581209,1.35474388 C17.6639673,1.58450111 27.3879558,0.877654343 31.2060117,0.561669488 C31.6086723,1.4153412 31.0658208,2.49474254 30.1363931,2.50078396 L1.01725061,2.6890025 C0.476226833,2.69246192 0.0362794587,2.21738619 0.0180016285,1.6225804 C0.00082046801,1.06548775 -0.00210398483,0.527983964 0.00118602462,0 Z"></path></clipPath><clipPath id="i22"><path d="M2.8169792,0 L9.02577536,0.196071715 L9.60102738,0.337948835 C22.1629336,3.51779317 28.5563681,10.5249718 31.0896754,14.0702967 L31.133989,14.1419937 C31.160309,14.1906777 31.1814301,14.2407991 31.2048257,14.290351 L30.9687252,14.309758 C26.9985962,14.6340592 17.4988218,15.3085838 9.46480884,15.0832423 L9.02875118,15.0697616 C4.00993947,14.8998679 1.37878305,14.2928988 0,13.7284984 C0.0522745945,4.81300223 2.8169792,0 2.8169792,0 Z"></path></clipPath><clipPath id="i23"><path d="M7.93513723,0 L8.62987756,11.037135 L8.63380776,11.1952168 C8.62275995,12.0322737 8.10530383,12.7637873 7.3566439,12.9672788 L7.0373344,13.0471127 C5.64054681,13.3671048 4.09159675,13.35699 3.10448947,13.301571 L2.97852145,13.2878539 C2.43986746,13.2001642 2.00078269,12.7507291 1.89029321,12.1537002 L1.85579102,11.9671252 C1.33319378,9.14133315 0.0957920775,2.46021081 0,2.0121608 L7.93513723,0 Z"></path></clipPath><linearGradient id="i24" x1="4.79497583px" y1="-2.73571241px" x2="2.93550883px" y2="33.6498741px" gradientUnits="userSpaceOnUse"><stop stop-color="#FDBABA" offset="0%"></stop><stop stop-color="#FF918E" offset="100%"></stop></linearGradient><clipPath id="i25"><path d="M2.96795208,0 L39.4515979,9.76349265 L39.4541493,9.78108034 C39.6221811,10.9402965 48.0542799,69.247367 54.1561124,138.500226 L54.1645299,138.662161 C54.1841009,139.896126 53.1811348,140.94798 51.9569238,141.206236 L51.5689331,141.286532 C49.707018,141.664163 47.153376,142.070819 45.0148211,142.010844 L44.8415156,142.000043 C43.6961263,141.889231 42.7592237,141.010478 42.5632158,139.85973 L42.4963873,139.473668 C41.3660554,133.041517 37.3224285,114.443052 33.0125263,95.3441014 L32.4725931,92.9549698 C28.0549406,73.436224 23.4747381,53.9024633 21.5479149,46.7639278 L21.5465702,46.7824013 C21.4581673,47.9986221 17.0451696,108.968587 18.4744977,140.753312 L18.4745036,140.892975 C18.4411226,141.630932 17.8802855,142.249647 17.13455,142.335799 L16.914903,142.359968 C15.7039784,142.486279 13.8648719,142.565438 11.5610912,142.320421 L11.3990627,142.296778 C10.5458165,142.138039 9.87464956,141.46368 9.74975822,140.591475 L9.70276478,140.262887 C8.08262818,128.912255 -0.350932686,67.5728267 0.0113302544,23.2622339 C0.0204564176,22.1469629 0.598770427,17.4755461 1.24148727,12.6083702 L1.39466551,11.4536112 C2.16409392,5.6780495 2.96795208,0 2.96795208,0 Z"></path></clipPath><clipPath id="i26"><path d="M0,0 C0.169817069,0.23630753 7.5835777,10.4813509 19.6462914,14.7522454 L19.3002506,15.3194791 C16.0483359,20.673434 12.2063951,27.6665655 10.4280505,33.4012102 L9.54024949,33.1994363 C6.86352083,32.5741208 4.06663445,31.7680848 1.14346106,30.7603751 L0,0 Z"></path></clipPath><clipPath id="i27"><path d="M31.4059079,0 L31.5164269,0.00114045939 C33.9092419,0.0501029913 38.5572074,1.69494795 47.4421451,8.65809488 L47.9255994,9.04305217 C63.6328098,21.7530574 55.0063593,35.1127351 51.127504,53.469727 L50.9626176,54.2418215 C46.1965836,76.3286107 38.1097496,94.407143 41.7478698,108.056202 L41.7817659,108.206954 C41.9481174,109.112607 41.4532216,110.02773 40.5779059,110.350845 L39.9315446,110.585557 C27.4360367,115.04768 14.9875526,115.122904 2.5883496,110.709486 L2.42685756,110.645297 C1.63560199,110.296806 1.09200075,109.541649 1.00238226,108.670963 L0.96704422,108.322739 C-0.239368981,96.2695504 -5.28565012,28.9190841 29.0857201,1.05010958 C29.0857201,1.05010958 29.4865529,0 31.4059079,0 Z"></path></clipPath><linearGradient id="i28" x1="69.4992365px" y1="-12.1525397px" x2="-68.5491413px" y2="241.636246px" gradientUnits="userSpaceOnUse"><stop stop-color="#AD0000" offset="0%"></stop><stop stop-color="#FF4F4F" offset="100%"></stop></linearGradient><clipPath id="i29"><path d="M13.8743354,0 L24.6224307,8.47337372 L14.3678368,29.5910846 L13.9524551,29.4500394 C2.84182237,25.6319847 0.185190813,21.0381715 0.00960314181,20.714912 L0,20.6968249 C0,20.6968249 6.5125104,11.4316444 10.6138007,5.28834086 L11.0091158,4.69458595 C12.6857257,2.16905913 13.8711316,0.28447153 13.8743354,0 Z"></path></clipPath><linearGradient id="i30" x1="4.45536552px" y1="36.0723913px" x2="14.0724889px" y2="9.76784792px" gradientUnits="userSpaceOnUse"><stop stop-color="#FDBABA" offset="0%"></stop><stop stop-color="#FF918E" offset="100%"></stop></linearGradient><clipPath id="i31"><path d="M0.450894082,0 L0.537218751,0.00843070403 C0.678554612,0.0362688938 0.803960836,0.131721381 0.864886937,0.274976392 C1.03059604,0.65988078 6.15007558,12.3346817 16.8759007,19.5936241 L16.9460065,19.6520424 C17.0925758,19.8017843 17.1187445,20.0387444 16.9967171,20.2199185 L16.9385118,20.2898892 C16.8531704,20.3735464 16.739146,20.4181871 16.6234839,20.4181871 L16.536874,20.4098267 C16.4794545,20.3985982 16.4232807,20.3758971 16.3719809,20.340747 L16.0049887,20.0892371 C5.18193899,12.5785585 0.0865925541,0.747602999 0.0356217782,0.627392873 L0.0108205928,0.549748365 C-0.0358061773,0.340774363 0.0712432385,0.122333779 0.274330241,0.0362485523 C0.332088185,0.0117167038 0.392039468,0 0.450894082,0 Z"></path></clipPath><clipPath id="i32"><path d="M7.76259599,0 L8.17932374,0.0062967271 C9.15803408,0.0359968263 10.1797934,0.172958686 11.2158265,0.463542094 L11.553618,0.563282935 C14.7992861,1.573987 17.4742957,3.93373074 19.5084781,7.58198887 L19.7639648,8.03980109 C26.02572,19.2501145 29.3076664,24.3683224 29.3404885,24.4194414 L29.3819003,24.5005973 C29.4576551,24.6957279 29.3887648,24.9243581 29.2059637,25.0422575 L29.1277278,25.082893 C29.0740993,25.1043194 29.0180067,25.1145715 28.9623202,25.1145715 L28.8744682,25.105885 C28.7589464,25.0828558 28.6522916,25.0145768 28.5834208,24.9075154 C28.4604053,24.7156169 25.0817709,19.4283641 18.7223486,8.0224637 L18.5151292,7.65946025 C16.5604099,4.31487361 14.0276564,2.18743158 10.9816875,1.33332428 L10.6916709,1.25645629 C5.57256355,-0.0255656864 0.72141729,2.67741938 0.672442859,2.70491091 L0.58893745,2.74096137 C0.389713384,2.80449145 0.16648967,2.72543803 0.0588560975,2.53593408 L0.0252216304,2.46181919 C-0.0453523568,2.25998129 0.0353589312,2.03069191 0.227560471,1.92117327 C0.39882374,1.82396125 3.65319142,0 7.76259599,0 Z"></path></clipPath><clipPath id="i33"><path d="M19.7843312,0 L19.7965321,0.0281997217 C20.0664259,0.65344049 24.7267572,11.5226751 25.0485291,17.3070361 L25.0642063,17.576384 C25.4166881,23.3809525 26.5571674,27.1480188 19.7843312,28.3293421 L19.4295973,28.3872755 C12.7083227,29.4099564 7.06002748,25.9953633 3.97565308,20.1635319 C3.94838253,20.1125693 3.82188663,19.8750631 3.62737876,19.4904123 L3.41150134,19.0584431 C2.15312337,16.5114694 -0.706734513,10.2218997 0.161252679,7.27534076 C1.26431974,3.53057238 19.7843312,0 19.7843312,0 Z"></path></clipPath><linearGradient id="i34" x1="23.0881356px" y1="7.91645484px" x2="-34.2126447px" y2="53.6279035px" gradientUnits="userSpaceOnUse"><stop stop-color="#FDBABA" offset="0%"></stop><stop stop-color="#FF918E" offset="100%"></stop></linearGradient><clipPath id="i35"><path d="M30.562013,0 L30.6309881,0.00486839891 C30.6770211,0.0113912398 30.7229188,0.0245318486 30.767273,0.0446699332 L30.9505763,0.132169346 C34.2901539,1.80423245 36.4543154,7.18149598 33.9152637,11.3641042 L33.7558844,11.6083224 C30.7667594,15.8887425 18.6997214,18.3655264 15.610565,19.6344494 L15.4541076,19.7061428 C13.4020093,20.7510038 14.8498674,24.4278146 15.8239277,26.4089952 L15.9626296,26.6863173 L16.028579,26.8149581 L16.0752051,26.9202996 C16.2470597,27.382514 16.0300934,27.9093584 15.5674293,28.1138646 L15.1759182,28.286686 L13.4073554,28.286686 L13.320265,28.2947236 C13.0671465,28.3421664 12.8930721,28.5925286 12.9511407,28.8554953 L14.0863768,34.0161541 L14.0973582,34.1031562 C14.1050766,34.3330543 13.9441955,34.5400494 13.7089396,34.5791051 L13.6106879,34.5945237 C12.4818481,34.762554 9.77366895,34.8589868 6.18304295,32.9365697 L5.96591028,32.8175005 C2.66374669,30.9619495 4.00589063,29.5724645 4.91273375,28.9812668 L4.98377547,28.924004 C5.17352183,28.7358147 5.15328827,28.4105169 4.93466715,28.2315808 L4.6650171,28.0064227 C-0.205891774,23.8635292 -1.08465646,18.9191061 1.20361366,16.9917835 L1.37644897,16.8519416 C2.6298293,15.8794864 3.57296879,16.0595414 4.17211607,16.4253541 L4.24672431,16.4631173 C4.54900385,16.5865216 4.88727133,16.3833035 4.89536981,16.039069 L4.90638439,15.7568326 C5.21669906,10.0565425 10.780952,6.70283745 19.1281335,5.15974343 L19.5121766,5.08632023 C25.1940638,3.96330951 27.3479161,1.87844153 28.1566505,0.581624499 L28.2110724,0.509908269 C28.4475957,0.252338108 28.8947515,0.344009183 28.9983446,0.702269933 L29.0296972,0.783575515 C29.1917296,1.11257313 29.6778882,1.13666411 29.8605098,0.791060579 L30.1471062,0.247332294 C30.231367,0.0878752784 30.3927602,0 30.562013,0 Z"></path></clipPath><clipPath id="i36"><path d="M2.20419943,0 L2.40815428,0.0120436071 C4.8265885,0.297913669 6.19717423,5.577151 6.19717423,5.577151 L5.36315684,8.75439154 L5.23919299,8.73745742 C2.60194456,8.29391119 -2.1248247,2.3606412 1.06987729,0.359556347 C1.46888232,0.109661025 1.84723341,0 2.20419943,0 Z"></path></clipPath><linearGradient id="i37" x1="16.9783622px" y1="-5.99756534px" x2="-11.2210813px" y2="15.6141567px" gradientUnits="userSpaceOnUse"><stop stop-color="#FDBABA" offset="0%"></stop><stop stop-color="#FF918E" offset="100%"></stop></linearGradient><clipPath id="i38"><path d="M0.517927591,0 L0.585098617,0.00304359688 L0.657204658,0.0122659243 L0.786379386,0.0328581282 C2.08800338,0.234901711 2.37286462,0.134913725 2.7443501,2.61465568 L2.7579497,2.69924668 C2.88752122,3.4572228 3.31787631,4.85473465 3.76575851,6.37151286 L3.86929815,6.72341894 C3.93836009,6.95911869 4.00732116,7.19669408 4.07514992,7.43425062 L4.17591492,7.79033451 C5.15588437,11.2870299 5.77730714,14.5735443 2.73027617,11.5704281 L2.7104705,11.5349084 C2.47726644,11.1144888 0.265751253,7.06732109 0.414840629,5.04642094 C0.566729398,2.98849176 -0.6631858,0.000183073497 0.517927591,0 Z"></path></clipPath><linearGradient id="i39" x1="16.3785385px" y1="-5.64752112px" x2="-43.3278113px" y2="46.0109333px" gradientUnits="userSpaceOnUse"><stop stop-color="#FDBABA" offset="0%"></stop><stop stop-color="#FF918E" offset="100%"></stop></linearGradient><clipPath id="i40"><path d="M50.5449635,0 L62.2354637,5.78292561 L62.2485924,5.87589557 C62.4479661,7.48439824 61.1611066,8.94549263 55.2215291,11.4096895 L55.2183479,11.4219442 C55.0076062,12.227711 44.2492782,52.4671963 0,42.6962178 L0.198312465,42.077108 C2.12067232,36.2562673 6.01186199,29.2804279 9.21842369,24.047253 L9.54876386,24.1624418 C20.4753858,27.9138229 33.9183012,26.6905267 50.4883022,8.77141737 L50.5449635,0 Z"></path></clipPath><linearGradient id="i41" x1="64.9735309px" y1="-5.42089294px" x2="6.85463245px" y2="44.8640856px" gradientUnits="userSpaceOnUse"><stop stop-color="#FDBABA" offset="0%"></stop><stop stop-color="#FF918E" offset="100%"></stop></linearGradient><clipPath id="i42"><path d="M3.45523873,0 L3.55387375,0.0131085506 C4.54741057,0.263843489 6.67889965,4.03291385 7.8662275,4.51569087 L7.93123165,4.55379146 C9.21287288,5.55461336 6.6979289,19.6423216 6.64252677,19.9374361 L6.60833239,20.0840478 C6.42138208,20.7541489 5.85815196,21.2207569 5.21228655,21.2204153 L5.07522942,21.2132592 C4.44256488,21.147429 3.9139879,20.6337866 3.783143,19.9357884 L3.72914336,19.7036212 C3.16617811,17.695398 0.576088795,17.8370927 0.0917524043,16.5090187 L0.0549489622,16.3866036 C-0.466169591,14.2599787 2.88528846,5.99462814 3.10686328,5.26244766 L3.13094144,5.15582192 C3.26919806,4.30765916 2.59478206,2.03283219 3.10686328,0.352965702 C3.18198517,0.106731849 3.3013394,0 3.45523873,0 Z"></path></clipPath><linearGradient id="i43" x1="10.3882518px" y1="5.54367233px" x2="-49.3179363px" y2="57.2019871px" gradientUnits="userSpaceOnUse"><stop stop-color="#FDBABA" offset="0%"></stop><stop stop-color="#FF918E" offset="100%"></stop></linearGradient><clipPath id="i44"><path d="M45.3362651,0 L46.0015172,0.00491560112 C52.657023,0.103285266 59.3966924,1.67979382 65.7361515,4.89007617 L66.2778067,5.16888112 C84.0646939,14.473244 93.1538674,34.017086 89.9747477,52.9042129 L93.9159963,54.9000802 L103.119067,59.5605822 L101.063176,63.6332352 L107.610661,66.9488793 L109.666368,62.8762263 L112.940293,64.5343229 L110.884586,68.6067929 L114.661882,70.5197278 L116.717772,66.4472579 L122.006097,69.1254401 L121.03262,71.0539363 L127.83179,74.4971826 L128.805633,72.5686864 L131.827506,74.0989978 L129.936116,77.8455969 L138.047086,81.9528508 L139.938111,78.2064348 L146.181635,81.368114 L144.125744,85.4409501 L150.799346,88.8204869 L152.855236,84.7478339 L160.623497,88.6819002 L160.831524,88.7946835 C161.648867,89.2679521 162.28609,90.0036345 162.637531,90.8861051 L168.801729,106.362223 L168.882658,106.5829 C169.354023,107.986987 169.046012,109.504707 168.141351,110.607881 L167.998533,110.771869 L167.851282,110.924781 L167.810362,110.964348 L167.769032,111.003502 L167.644103,111.11591 L167.514239,111.223923 L167.465505,111.263375 L167.416087,111.302278 L167.23388,111.43329 L167.043036,111.555652 L159.457737,116.081412 L159.248432,116.198378 C158.048092,116.825097 156.613798,116.838065 155.397317,116.222012 L77.8391823,76.9452414 L77.4337411,77.3593289 C63.9761169,90.9279424 42.8269658,94.9534728 24.8649125,85.8574423 L24.1992562,85.5135351 C2.36547543,74.0077271 -6.29120466,47.0401345 4.88230897,24.9053185 C12.856378,9.10790646 28.7937321,-0.00128151448 45.3362651,0 Z M31.0594288,27.8731502 C26.5874533,25.7716836 21.2282922,27.6017414 18.9843861,32.0468325 L18.86378,32.294747 C16.7657146,36.7741181 18.5931708,42.1419312 23.030915,44.3892815 C24.3577027,45.0609782 25.7702134,45.379343 27.1617046,45.379343 L27.4569028,45.3745693 C30.6997679,45.2696842 33.7864666,43.4409823 35.3534626,40.3364005 L35.4740687,40.088486 C37.5721341,35.6091149 35.7446779,30.2413018 31.3069337,27.9939515 Z"></path></clipPath><clipPath id="i45"><path d="M4.58078982,0 L41.3475593,18.61949 L39.2916689,22.6919599 L45.8391533,26.0077871 L47.8950436,21.9351341 L51.1687858,23.5930477 L49.1130782,27.6655176 L52.8905574,29.5786356 L54.946265,25.5059826 L60.2345896,28.1843479 L59.2611124,30.112661 L66.0604652,33.5560904 L67.0339425,31.6275942 L70.0559989,33.1577225 L68.1647918,36.9043216 L76.275579,41.0115755 L78.1666033,37.2653425 L84.4101274,40.4270218 L82.3544198,44.4996748 L89.0280212,47.8792116 L91.0837287,43.8067417 L98.8521722,47.7406249 L99.0601602,47.8534442 C99.8773594,48.3268328 100.514583,49.0623593 100.866024,49.9448298 L107.030039,65.4209479 L107.104129,65.6213659 C107.745607,67.4999645 106.991284,69.5882815 105.271529,70.6143768 L97.6862294,75.1401368 L97.4769267,75.257104 C96.2766042,75.8838412 94.8424732,75.8969626 93.6259922,75.2807372 L0,27.8670815 L4.58078982,0 Z"></path></clipPath><clipPath id="i46"><path d="M45.3364433,0 L46.0016783,0.00491560727 C52.6570184,0.103285457 59.3966878,1.67979973 65.7361469,4.89025924 L66.4018031,5.23417179 C88.2355839,16.7401503 96.8922658,43.7073858 85.7189331,65.8423831 L85.3755805,66.5091145 C73.8883284,88.3781612 46.9643966,97.0490035 24.8650906,85.8576254 L24.1994289,85.5137127 C2.36547081,74.0077271 -6.29120928,47.0401345 4.88230435,24.9053185 C12.8563734,9.10808953 28.7939102,-0.00128151448 45.3364433,0 Z M31.0594242,27.8731694 C26.5874487,25.7720366 21.2282876,27.6017448 18.9843815,32.0470156 L18.863785,32.2949299 C16.7658862,36.7742946 18.5931662,42.1419345 23.0309103,44.3894646 C24.357698,45.0611613 25.7702088,45.3795261 27.1617,45.3795261 L27.4568982,45.3747519 C30.6997633,45.2698566 33.7864619,43.4409823 35.353458,40.3364005 L35.4740547,40.0884862 C37.5719598,35.6091214 35.7448528,30.2414815 31.3069291,27.9939515 Z"></path></clipPath><linearGradient id="i47" x1="-7.29548854px" y1="41.435148px" x2="229.479434px" y2="59.1662517px" gradientUnits="userSpaceOnUse"><stop stop-color="#FF9085" offset="0%"></stop><stop stop-color="#FB6EBA" offset="100%"></stop></linearGradient><clipPath id="i48"><path d="M45.3364433,0 L46.0016783,0.00491560727 C52.6570184,0.103285457 59.3966878,1.67979973 65.7361469,4.89025924 L66.2778021,5.16906419 C84.0646892,14.4734271 93.1538628,34.017269 89.9747431,52.904396 L93.9159917,54.9000802 L93.7294497,55.2579929 C91.2450893,60.1080067 91.4118288,63.2633875 92.2845125,65.3634628 L92.379193,65.5518766 C96.1357328,71.9976212 162.060998,100.876982 169.059259,108.471779 L169.022316,108.70458 C168.805875,109.862122 168.11554,110.91581 167.043032,111.555652 L159.457732,116.081412 L159.248429,116.198379 C158.048107,116.825116 156.613976,116.838238 155.397495,116.222012 L77.8391777,76.9454245 L77.4337419,77.3595066 C63.976295,90.927946 42.8271439,94.9536559 24.8650906,85.8576254 L24.1994289,85.5137127 C2.36547081,74.0077271 -6.29120928,47.0401345 4.88230435,24.9053185 C12.8563734,9.10808953 28.7939102,-0.00128151448 45.3364433,0 Z M31.0594242,27.8731694 C26.5874487,25.7720366 21.2282876,27.6017448 18.9843815,32.0470156 L18.863785,32.2949299 C16.7658862,36.7742946 18.5931662,42.1419345 23.0309103,44.3894646 C24.357698,45.0611613 25.7702088,45.3795261 27.1617,45.3795261 L27.4568982,45.3747519 C30.6997633,45.2698566 33.7864619,43.4409823 35.353458,40.3364005 L35.4740547,40.0884862 C37.5719598,35.6091214 35.7448528,30.2414815 31.3069291,27.9939515 Z"></path></clipPath><clipPath id="i49"><path d="M36.4387901,0 L37.0307918,0.00484280771 C42.3614137,0.09207009 47.7576629,1.35916379 52.834735,3.93022183 L53.3697497,4.20664279 C70.918437,13.4546123 77.8760424,35.129349 68.89583,52.9199572 L68.6198602,53.4558361 C59.3869833,71.0328687 37.7473713,78.0018867 19.9850873,69.0068085 L19.4500672,68.7303929 C1.90120256,59.4826011 -5.05640101,37.8078644 3.92399232,20.0172561 C10.3332963,7.32055991 23.1429481,-0.00109844098 36.4387901,0 Z M22.1687166,18.9679253 C17.6967411,16.8667925 12.33758,18.6965007 10.0936739,23.1417715 L9.97307739,23.3896858 C7.87517862,27.8690505 9.70245857,33.2366904 14.1402028,35.4842205 C15.4669905,36.1559172 16.8795012,36.474282 18.2709924,36.474282 L18.5661906,36.4695078 C21.8090557,36.3646125 24.8957544,34.5357382 26.4627504,31.4311564 L26.5833471,31.1832421 C28.6812522,26.7038773 26.8541452,21.3362374 22.4162215,19.0887074 Z"></path></clipPath><clipPath id="i50"><path d="M72.6028318,0 L72.1106098,2.23624276 L89.3164453,3.27573408 L89.3981424,3.66064503 C89.7663855,5.60347497 89.5394691,7.81059045 89.0985736,9.83910201 L89.0421299,10.0794183 C88.1187297,13.7364559 84.5484322,16.1019489 80.804277,15.4911301 L71.6904025,14.003841 L71.4003381,13.963132 C69.6591346,13.7580595 67.9098065,14.2558176 66.5080893,15.3247163 L65.7868038,15.8608136 C41.8023766,33.2334219 0,19.2170419 0,19.2170419 L0.0680301062,18.9365136 C1.97631833,11.5283602 13.0343397,2.50877668 14.3440096,1.46126444 L14.4244278,1.3971905 C14.4346046,1.38911809 14.4431428,1.38236192 14.450004,1.37694143 L14.470741,1.36060223 L15.4424032,1.89666872 C47.3615431,19.2938912 64.8449895,7.82273051 64.8449895,7.82273051 C64.9981577,1.86313898 72.6028318,0 72.6028318,0 Z"></path></clipPath><linearGradient id="i51" x1="46.4452975px" y1="5.06385654px" x2="18.0504555px" y2="146.937358px" gradientUnits="userSpaceOnUse"><stop stop-color="#FDBABA" offset="0%"></stop><stop stop-color="#FF918E" offset="100%"></stop></linearGradient></defs><g transform="translate(-703.0 -130.0)"><g clip-path="url(#i0)"><g transform="translate(703.0 130.0)"><g transform="translate(0.0 3.618969206208959)"><g clip-path="url(#i1)"><g clip-path="url(#i1)"><polygon points="0,0 505,0 505,500.19072 0,500.19072 0,0" stroke="none" fill="#FFF1DB"></polygon></g></g></g><g transform="translate(3.6393392321612055 2.842170943040401e-14)"><g transform="translate(0.0 107.17213654134707)"><g clip-path="url(#i2)"><polygon points="-7.10542736e-15,0 229.717999,0 229.717999,391.966533 -7.10542736e-15,391.966533 -7.10542736e-15,0" stroke="none" fill="url(#i3)"></polygon></g></g><g transform="translate(61.58065653317319 149.84015545934247)"><g clip-path="url(#i4)"><polygon points="0,0 125.359595,0 125.359595,324.75316 0,324.75316 0,0" stroke="none" fill="#FFFFFF"></polygon></g></g><g transform="translate(108.162293962725 0.0)"><g clip-path="url(#i5)"><polygon points="-7.10542736e-15,-4.26325641e-14 207.098184,-4.26325641e-14 207.098184,427.907717 -7.10542736e-15,427.907717 -7.10542736e-15,-4.26325641e-14" stroke="none" fill="url(#i6)"></polygon></g></g><g transform="translate(177.6501061352232 46.85637059209799)"><g clip-path="url(#i7)"><polygon points="0,0 71.1751505,0 71.1751505,358.25085 0,358.25085 0,0" stroke="none" fill="#FFFFFF"></polygon></g></g></g><g transform="translate(172.26855018802644 93.60307122115805)"><g transform=""><g clip-path="url(#i8)"><g transform=""><g transform=""><g clip-path="url(#i9)"><polygon points="0,0 305.920249,0 305.920249,411.102521 0,411.102521 0,0" stroke="none" fill="#F1F1F1"></polygon></g></g></g></g></g></g><g transform="translate(209.8027509039383 155.3648192907218)"><g clip-path="url(#i10)"><polygon points="0,0 230.199585,0 230.199585,295.187523 0,295.187523 0,0" stroke="none" fill="#E9E9E9"></polygon></g></g><g transform="translate(227.3696283990431 179.64743158754047)"><g clip-path="url(#i11)"><g clip-path="url(#i11)"><polygon points="0,0 195.248535,0 195.248535,250.369483 0,250.369483 0,0" stroke="none" fill="#BCBCBC"></polygon></g></g></g><g transform="translate(315.5188515007728 115.9592743418054)"><g clip-path="url(#i12)"><g clip-path="url(#i12)"><polygon points="0,0 18.3039676,0 18.3039676,18.3335292 0,18.3335292 0,0" stroke="none" fill="#A1A1A1"></polygon></g></g></g><g transform="translate(249.8032889236349 273.1038886140303)"><g clip-path="url(#i13)"><g clip-path="url(#i13)"><polygon points="0,0 149.282351,0 149.282351,106.498861 0,106.498861 0,0" stroke="none" fill="#D7D7D7"></polygon></g></g></g><g transform="translate(268.7073176469736 195.1814008543857)"><g clip-path="url(#i14)"><g clip-path="url(#i14)"><polygon points="0,0 127.490059,0 127.490059,66.199279 0,66.199279 0,0" stroke="none" fill="#D7D7D7"></polygon></g></g></g><g transform="translate(313.467539111916 300.0900185042282)"><g clip-path="url(#i15)"><g clip-path="url(#i15)"><polygon points="-6.17908502e-15,0 30.5069696,0 30.5069696,56.2776138 -6.17908502e-15,56.2776138 -6.17908502e-15,0" stroke="none" fill="#BCBCBC"></polygon></g></g></g><g transform="translate(85.82342851113924 489.1992672583867)"><g clip-path="url(#i16)"><g clip-path="url(#i16)"><polygon points="1.77635684e-15,0 21.6777974,0 21.6777974,16.9870395 1.77635684e-15,16.9870395 1.77635684e-15,0" stroke="none" fill="#3C3F51"></polygon></g></g></g><g transform="translate(86.17620443662668 505.4238995988088)"><g clip-path="url(#i17)"><g clip-path="url(#i18)"><polygon points="0,0 21.3245618,0 21.3245618,2.5761004 0,2.5761004 0,0" stroke="none" fill="#160C0C"></polygon></g></g></g><g transform="translate(86.15858460825723 482.4125496629404)"><g clip-path="url(#i19)"><g clip-path="url(#i19)"><polygon points="0,0 8.17559231,0 8.17559231,11.1939695 0,11.1939695 0,0" stroke="none" fill="url(#i20)"></polygon></g></g></g><g transform="translate(118.83165217858331 504.4090499773097)"><g clip-path="url(#i21)"><polygon points="3.4638091e-15,0 31.3406021,0 31.3406021,2.68902127 3.4638091e-15,2.68902127 3.4638091e-15,0" stroke="none" fill="#160C0C"></polygon></g></g><g transform="translate(118.8327650918778 490.6805149200293)"><g clip-path="url(#i22)"><g clip-path="url(#i22)"><polygon points="0,0 31.2048257,0 31.2048257,15.1284085 0,15.1284085 0,0" stroke="none" fill="#3C3F51"></polygon></g></g></g><g transform="translate(120.2218801915371 479.5326204866578)"><g clip-path="url(#i23)"><g clip-path="url(#i23)"><polygon points="0,0 8.63398816,0 8.63398816,13.3315649 0,13.3315649 0,0" stroke="none" fill="url(#i24)"></polygon></g></g></g><g transform="translate(76.06556873975046 342.9440476422202)"><g clip-path="url(#i25)"><g clip-path="url(#i25)"><polygon points="5.10182174e-15,0 54.1648115,0 54.1648115,142.479834 5.10182174e-15,142.479834 5.10182174e-15,0" stroke="none" fill="#160C0C"></polygon></g></g></g><g transform="translate(118.826916186195 253.8522458500924)"><g clip-path="url(#i26)"><g clip-path="url(#i26)"><polygon points="0,0 19.6462914,0 19.6462914,33.4012102 0,33.4012102 0,0" stroke="none" fill="#AD0000"></polygon></g></g></g><g transform="translate(75.161701980531 245.38619506959492)"><g clip-path="url(#i27)"><g clip-path="url(#i27)"><polygon points="3.55271368e-15,0 57.0037618,0 57.0037618,113.976268 3.55271368e-15,113.976268 3.55271368e-15,0" stroke="none" fill="url(#i28)"></polygon></g></g></g><g transform="translate(103.9156794828642 225.93207301832854)"><g clip-path="url(#i29)"><g clip-path="url(#i29)"><polygon points="0,0 24.6224307,0 24.6224307,29.5910846 0,29.5910846 0,0" stroke="none" fill="url(#i30)"></polygon></g></g></g><g transform="translate(94.2988190831037 273.0019166763792)"><g clip-path="url(#i31)"><g clip-path="url(#i31)"><polygon points="-5.16253706e-15,0 17.0741385,0 17.0741385,20.4181871 -5.16253706e-15,20.4181871 -5.16253706e-15,0" stroke="none" fill="#7F0018"></polygon></g></g></g><g transform="translate(98.45627287887521 251.538562999043)"><g clip-path="url(#i32)"><g clip-path="url(#i32)"><polygon points="-6.9388939e-16,0 29.4122328,0 29.4122328,25.1145715 -6.9388939e-16,25.1145715 -6.9388939e-16,0" stroke="none" fill="#7F0018"></polygon></g></g></g><g transform="translate(108.92083830467519 214.6303968477452)"><g clip-path="url(#i33)"><g clip-path="url(#i33)"><polygon points="1.30451205e-15,0 25.3599824,0 25.3599824,28.5672721 1.30451205e-15,28.5672721 1.30451205e-15,0" stroke="none" fill="url(#i34)"></polygon></g></g></g><g transform="translate(100.0705537983861 202.240897959886)"><g clip-path="url(#i35)"><g clip-path="url(#i35)"><polygon points="-4.88498131e-15,0 35.0260403,0 35.0260403,34.6768433 -4.88498131e-15,34.6768433 -4.88498131e-15,0" stroke="none" fill="#160C0C"></polygon></g></g></g><g transform="translate(109.2629656217734 226.0395371608799)"><g clip-path="url(#i36)"><g clip-path="url(#i36)"><polygon points="-4.4408921e-16,0 6.19717423,0 6.19717423,8.75439154 -4.4408921e-16,8.75439154 -4.4408921e-16,0" stroke="none" fill="url(#i37)"></polygon></g></g></g><g transform="translate(176.60484875686012 239.9679518618362)"><g clip-path="url(#i38)"><g clip-path="url(#i38)"><polygon points="9.99200722e-15,0 4.97950979,0 4.97950979,12.7474746 9.99200722e-15,12.7474746 9.99200722e-15,0" stroke="none" fill="url(#i39)"></polygon></g></g></g><g transform="translate(129.2549666836778 244.55723827662524)"><g clip-path="url(#i40)"><g clip-path="url(#i40)"><polygon points="0,0 62.2677858,0 62.2677858,44.2247253 0,44.2247253 0,0" stroke="none" fill="url(#i41)"></polygon></g></g></g><g transform="translate(184.8054990443152 231.3396979632797)"><g clip-path="url(#i42)"><g clip-path="url(#i42)"><polygon points="-1.99840144e-14,0 8.29472704,0 8.29472704,21.2204155 -1.99840144e-14,21.2204155 -1.99840144e-14,0" stroke="none" fill="url(#i43)"></polygon></g></g></g><g transform="translate(142.168501588831 192.681532257212)"><g clip-path="url(#i44)"><g clip-path="url(#i44)"><polygon points="1.77635684e-15,0 169.101811,0 169.101811,116.676336 1.77635684e-15,116.676336 1.77635684e-15,0" stroke="none" fill="#D08D08"></polygon></g></g></g><g transform="translate(205.33606957881372 231.28788816371906)"><g clip-path="url(#i45)"><g clip-path="url(#i45)"><polygon points="0,0 107.330756,0 107.330756,75.7351335 0,75.7351335 0,0" stroke="none" fill="#FFC655"></polygon></g></g></g><g transform="translate(143.5645668855877 190.3466128805477)"><g clip-path="url(#i46)"><g clip-path="url(#i46)"><polygon points="0,0 90.6011238,0 90.6011238,90.7476629 0,90.7476629 0,0" stroke="none" fill="url(#i47)"></polygon></g></g></g><g transform="translate(143.5645668855877 190.3466128805477)"><g clip-path="url(#i48)"><g clip-path="url(#i48)"><polygon points="8.8817842e-16,0 169.059259,0 169.059259,116.676409 8.8817842e-16,116.676409 8.8817842e-16,0" stroke="none" fill="#FFAD0C"></polygon></g></g></g><g transform="translate(152.4552744669832 199.25185697958182)"><g clip-path="url(#i49)"><g clip-path="url(#i49)"><polygon points="0,0 72.8197086,0 72.8197086,72.9372233 0,72.9372233 0,0" stroke="none" fill="#FFC655"></polygon></g></g></g><g transform="translate(110.92230293422529 274.2030618881005)"><g clip-path="url(#i50)"><g clip-path="url(#i50)"><polygon points="0,0 89.5824242,0 89.5824242,24.5596482 0,24.5596482 0,0" stroke="none" fill="url(#i51)"></polygon></g></g></g></g></g></g></svg>