<?xml version="1.0" encoding="UTF-8"?><svg version="1.1" width="602px" height="508px" viewBox="0 0 602.0 508.0" xmlns="http://www.w3.org/2000/svg" xmlns:xlink="http://www.w3.org/1999/xlink"><defs><clipPath id="i0"><path d="M1366,0 L1366,768 L0,768 L0,0 L1366,0 Z"></path></clipPath><clipPath id="i1"><path d="M323.688442,0 L323.688442,288 L0,288 L0,0 L323.688442,0 Z"></path></clipPath><clipPath id="i2"><path d="M51.4271357,0 L51.4271357,199 L0,199 L0,0 L51.4271357,0 Z"></path></clipPath><clipPath id="i3"><path d="M51.4271357,0 L51.4271357,123 L0,123 L0,0 L51.4271357,0 Z"></path></clipPath><clipPath id="i4"><path d="M51.4271357,0 L51.4271357,245 L0,245 L0,0 L51.4271357,0 Z"></path></clipPath><clipPath id="i5"><path d="M51.4271357,0 L51.4271357,155 L0,155 L0,0 L51.4271357,0 Z"></path></clipPath><clipPath id="i6"><path d="M51.4271357,0 L51.4271357,218 L0,218 L0,0 L51.4271357,0 Z"></path></clipPath><clipPath id="i7"><path d="M51.4271357,0 L51.4271357,138 L0,138 L0,0 L51.4271357,0 Z"></path></clipPath><clipPath id="i8"><path d="M46.8572348,0 C47.1534804,-5.44194228e-17 47.3936348,0.24015446 47.3936348,0.5364 L47.3936348,3.4636 C47.3936348,3.75984554 47.1534804,4 46.8572348,4 L0.5364,4 C0.24015446,4 4.80368825e-16,3.75984554 0,3.4636 L0,0.5364 C-3.62796152e-17,0.24015446 0.24015446,5.44194228e-17 0.5364,0 L46.8572348,0 Z"></path></clipPath><clipPath id="i9"><path d="M58.9577374,0 C59.2539829,-5.44194228e-17 59.4941374,0.24015446 59.4941374,0.5364 L59.4941374,3.4636 C59.4941374,3.75984554 59.2539829,4 58.9577374,4 L0.5364,4 C0.24015446,4 4.80368825e-16,3.75984554 0,3.4636 L0,0.5364 C-3.62796152e-17,0.24015446 0.24015446,5.44194228e-17 0.5364,0 L58.9577374,0 Z"></path></clipPath><clipPath id="i10"><path d="M43.8447092,0 C44.133996,-5.31411142e-17 44.3685092,0.234513248 44.3685092,0.5238 L44.3685092,3.4762 C44.3685092,3.76548675 44.133996,4 43.8447092,4 L0.5238,4 C0.234513248,4 1.73565559e-15,3.76548675 0,3.4762 L0,0.5238 C-3.54274095e-17,0.234513248 0.234513248,1.64163417e-16 0.5238,0 L43.8447092,0 Z"></path></clipPath><clipPath id="i11"><path d="M16.6725786,0 C16.9320419,7.84850239e-18 17.1423786,0.210336625 17.1423786,0.4698 L17.1423786,3.5302 C17.1423786,3.78966338 16.9320419,4 16.6725786,4 L0.4698,4 C0.210336625,4 -5.23336413e-16,3.78966338 0,3.5302 L0,0.4698 C2.3736052e-17,0.210336625 0.210336625,-7.84850239e-18 0.4698,0 L16.6725786,0 Z"></path></clipPath><clipPath id="i12"><path d="M35.7777075,0 C36.0669943,-5.31411142e-17 36.3015075,0.234513248 36.3015075,0.5238 L36.3015075,3.4762 C36.3015075,3.76548675 36.0669943,4 35.7777075,4 L0.5238,4 C0.234513248,4 -2.07399634e-15,3.76548675 0,3.4762 L0,0.5238 C-3.54274095e-17,0.234513248 0.234513248,1.64163417e-16 0.5238,0 L35.7777075,0 Z"></path></clipPath><clipPath id="i13"><path d="M128.063652,0 L121.158952,172 L119.798745,171.946996 L126.6469,1.35003444 L8.21150404,1.35003444 L1.36020706,172 L0,171.946996 L6.90155868,0 L128.063652,0 Z"></path></clipPath><clipPath id="i14"><path d="M121.162093,0 L128.063652,171.946996 L126.703445,172 L119.852148,1.35003444 L1.41675146,1.35003444 L8.26490709,171.946996 L6.90470003,172 L0,0 L121.162093,0 Z"></path></clipPath><clipPath id="i15"><path d="M120.158215,0 L127.055276,171 L6.89706138,171 L0,0 L120.158215,0 Z"></path></clipPath><clipPath id="i16"><path d="M127.055276,0 L120.158215,171 L0,171 L6.89706138,0 L127.055276,0 Z"></path></clipPath><clipPath id="i17"><path d="M35.7906827,0 C36.6297137,-1.54127493e-16 37.3098827,0.680169008 37.3098827,1.5192 L37.3098827,5.4808 C37.3098827,6.31983099 36.6297137,7 35.7906827,7 L1.5192,7 C0.680169008,7 1.43501929e-15,6.31983099 0,5.4808 L0,1.5192 C1.19292943e-16,0.680169008 0.680169008,1.54127493e-16 1.5192,0 L35.7906827,0 Z"></path></clipPath><clipPath id="i18"><path d="M23.191205,0 C23.7489022,2.10093556e-15 24.201005,0.45210286 24.201005,1.0098 L24.201005,3.9902 C24.201005,4.54789714 23.7489022,5 23.191205,5 L1.0098,5 C0.45210286,5 2.90342807e-16,4.54789714 0,3.9902 L0,1.0098 C-6.82982018e-17,0.45210286 0.45210286,3.24491908e-16 1.0098,0 L23.191205,0 Z"></path></clipPath><clipPath id="i19"><path d="M38.318258,0 L38.318258,13 L0,13 L0,12.2265663 L37.5572972,12.2265663 L37.5572972,0 L38.318258,0 Z"></path></clipPath><clipPath id="i20"><path d="M3.68166831,5.47543198 C7.2967443,1.24178892 12.9300033,-0.749887375 18.4401096,0.257486577 C23.950216,1.26486053 28.4909355,5.11657368 30.3362327,10.3484983 C33.1854059,18.1871447 29.228317,26.8469477 21.3962241,29.9130608 C13.5641312,32.9791738 4.68483825,29.3445663 1.33578151,21.7016147 C1.198693,21.3873629 1.06783578,21.0638684 0.952556809,20.737293 C-0.975102491,15.534488 0.0665923284,9.70907504 3.68166831,5.47543198 Z M20.6481841,5.08942791 C16.3707657,3.08824468 11.2954433,3.83208906 7.78891505,6.97409537 C4.28238683,10.1161017 3.0352336,15.0374786 4.6290214,19.4433151 C4.71625955,19.6897871 4.81284463,19.9300972 4.91566101,20.1642456 C5.37208598,21.2081712 5.9832286,22.1790398 6.72896813,23.0448871 C9.88522154,26.7067826 15.0032486,28.0560414 19.5841316,26.4338771 C24.0398068,24.8644338 27.0968827,20.7898262 27.3297993,16.1162661 C27.562716,11.442706 24.9256026,7.09061113 20.6481841,5.08942791 Z"></path></clipPath><clipPath id="i21"><path d="M3.878,11.997 L0,10.8484693 C2.06635981,4.55673471 8.08771456,0.202635194 15.0025239,0 L15.1256281,3.86827888 C10.0469353,4.01491353 5.6103862,7.15041353 3.97624975,11.7129946 L3.878,11.997 Z"></path></clipPath><clipPath id="i22"><path d="M0.735585259,0 L4.59772946,1.17530793 C3.81055441,3.62781211 3.86594881,6.26529353 4.75543369,8.68404469 C4.82945812,8.93927241 4.93566708,9.18504726 5.04187605,9.42452019 L1.34387297,11 C1.20226102,10.684904 1.06708597,10.3477514 0.94800319,10.0137496 C-0.238686373,6.78825626 -0.313297728,3.27094763 0.735585259,0 Z"></path></clipPath><clipPath id="i23"><path d="M3.34668722,0 C3.7733808,0.970326105 4.34471377,1.87274584 5.04187605,2.67754868 L2.26025177,5 C1.33197993,3.92671352 0.570317154,2.72431144 0,1.43184422 L3.34668722,0 Z"></path></clipPath><clipPath id="i24"><path d="M129.072027,0 L129.072027,1.36864238 L8.20365088,1.36864238 L1.37510605,172 L0,172 L6.88179495,0 L129.072027,0 Z"></path></clipPath><clipPath id="i25"><path d="M8.5561837,0 L15.1256281,172 L0,172 L6.56944444,0 L8.5561837,0 Z"></path></clipPath><clipPath id="i26"><path d="M97.1445619,0 L97.8123953,1.17311609 L47.1830614,28.3594705 L29.8445937,16.9460285 L0.683584212,33 L0,31.8360489 L29.9075968,15.3696538 L47.255515,26.7892057 L97.1445619,0 Z"></path></clipPath><clipPath id="i27"><path d="M8.90272716,3.64006742 C14.9708732,-0.52516563 22.8178713,-1.16222816 29.487833,1.96885512 C39.575017,6.68363593 44.0687057,18.4909214 39.6398204,28.6434697 C35.2109352,38.7960181 23.4587594,43.6277146 13.0897076,39.5590729 C12.6645131,39.3946797 12.2393187,39.2116759 11.820377,39.0131634 C5.15041499,35.8820808 0.670814916,29.4585382 0.0689988988,22.1622221 C-0.532817118,14.865906 2.8345811,7.80530047 8.90272716,3.64006742 Z M27.3125498,6.62579436 C19.5841438,2.99812816 10.3547444,6.270908 6.69504996,13.9368376 C3.03535549,21.6027672 6.33037511,30.76068 14.0557745,34.3946441 C14.3684175,34.5404268 14.6810605,34.6769042 14.9937035,34.8040763 C22.5786125,37.7717864 31.1833736,34.3920473 34.6652011,27.0775946 L34.6902126,27.0775946 C38.3435578,19.4086847 35.0409558,10.2534606 27.3125498,6.62579436 Z"></path></clipPath><clipPath id="i28"><path d="M5.44160291,0 L9.07537688,3.43184211 C4.77467671,8.00652409 3.7819039,14.7600842 6.55257118,20.3657865 L6.712,20.68 L2.28627585,23 C-1.67332103,15.4446273 -0.406642537,6.21147816 5.44160291,0 Z"></path></clipPath><clipPath id="i29"><path d="M4.75594499,0 C6.37347412,2.97894633 8.960524,5.36690526 12.1219786,6.79916753 C12.459602,6.93028096 12.7842398,7.07075963 13.1088777,7.1987513 L11.1448185,12 C10.703311,11.8345473 10.2618035,11.6503642 9.82678872,11.4505723 C5.61215191,9.54414499 2.16125288,6.36495489 0,2.3975026 L4.75594499,0 Z"></path></clipPath><clipPath id="i30"><path d="M1.8120802,0 C3.16827243,0.543451448 4.5965561,0.879944785 6.05025126,0.998482549 L5.65189313,6 C3.71326834,5.84156176 1.80856842,5.39256653 0,4.6676783 L1.8120802,0 Z"></path></clipPath><clipPath id="i31"><path d="M97.8727585,0 L98.8207705,0.990466757 L86.5503352,12.2322645 L66.7526847,11.1706079 L44.3543213,17.819116 L31.4265977,6.6825554 L0.723649157,25 L0,23.8392968 L31.5782796,5.00185713 L44.6924456,16.2993686 L66.5852026,9.79943048 L86.0352487,10.8425158 L97.8727585,0 Z"></path></clipPath><clipPath id="i32"><path d="M11.2710286,8.47632128 C11.5264244,8.71321397 11.7336083,8.99832414 11.8809325,9.31562327 C12.1736925,9.9718455 12.1736925,10.7237137 11.8809325,11.3799359 C11.7324342,11.6983314 11.525457,11.9852515 11.2710286,12.2254092 C11.0138345,12.4726228 10.7113356,12.6665464 10.3805689,12.796258 C10.0316884,12.9337052 9.66017232,13.0028158 9.28579141,12.9999122 C8.9124348,13.002425 8.54198963,12.9333211 8.19406344,12.796258 C7.86466264,12.6656287 7.5633294,12.4717885 7.30665328,12.2254092 C7.05154679,11.9858606 6.84446766,11.6987992 6.69674938,11.3799359 C6.39875685,10.7248635 6.39875685,9.97069566 6.69674938,9.31562327 C6.84296881,8.99766059 7.05030208,8.71234478 7.30665328,8.47632128 C8.43317144,7.44919114 10.1445104,7.44919114 11.2710286,8.47632128 Z M10.3958165,0.0740443573 L11.3106723,0.873232651 L6.45278783,6.73600392 L1.70163649,12.9320274 L0.80202825,12.1112395 L5.74834883,6.18058348 L10.3958165,0.0740443573 Z M9.30408853,8.72625091 C9.11132198,8.7254925 8.92111997,8.77096304 8.74907599,8.85894425 C8.57921203,8.9494173 8.42725452,9.07075081 8.30079662,9.21688186 C8.1708453,9.36979555 8.06770681,9.54407862 7.99584468,9.7321886 C7.9199406,9.92881098 7.88165079,10.1382364 7.88301246,10.3493224 C7.88098342,10.5684893 7.91924436,10.7861275 7.99584468,10.9911416 C8.0655487,11.1831026 8.16884792,11.3607929 8.30079662,11.5157053 C8.42504732,11.6617692 8.57762737,11.780449 8.74907599,11.8643859 C8.91707342,11.9439034 9.10032223,11.9849911 9.28579141,11.984727 C9.67805075,11.9883866 10.0506417,11.8112384 10.2982319,11.5033627 C10.7131503,11.0081317 10.8299025,10.324123 10.6031838,9.71676025 C10.5351101,9.52587792 10.4316018,9.34992265 10.2982319,9.19836785 C10.169071,9.05455208 10.0137729,8.93722166 9.84080396,8.85277291 C9.67377885,8.76972679 9.49018894,8.7264517 9.30408853,8.72625091 Z M3.89119147,0.206728128 C4.5504472,0.464970973 5.08427877,0.973031035 5.37935697,1.62305024 C5.67211702,2.27927247 5.67211702,3.03114063 5.37935697,3.68736286 C5.23286193,4.00426315 5.02553868,4.28851628 4.76945308,4.52357918 C4.5119921,4.76664458 4.21071103,4.95730836 3.88204291,5.08517095 C3.53984621,5.21995279 3.17581982,5.28901685 2.80861206,5.28882511 C2.43525545,5.29133798 2.06481028,5.22223405 1.71688409,5.08517095 C1.38904686,4.95562961 1.08806303,4.76515394 0.829473925,4.52357918 C0.574339837,4.28764772 0.367165805,4.00359919 0.219570032,3.68736286 C-0.0731900105,3.03114063 -0.0731900105,2.27927247 0.219570032,1.62305024 C0.514648231,0.973031035 1.0484798,0.464970973 1.70773553,0.206728128 C2.4100649,-0.068909376 3.18886211,-0.068909376 3.89119147,0.206728128 Z M1.7961716,1.50270914 C1.38535728,1.9974498 1.2689006,2.67737033 1.49121965,3.28314021 C1.56304112,3.47220579 1.66616673,3.64751056 1.7961716,3.80153261 C1.92077905,3.94641912 2.07332404,4.06402163 2.24445096,4.14712755 C2.42030972,4.23286334 2.61342122,4.27616835 2.80861206,4.27363998 C3.00154044,4.2758616 3.19207884,4.23031064 3.3636246,4.14095621 C3.53373773,4.05219013 3.68581308,3.93180931 3.81190397,3.78610427 C3.94250285,3.63251385 4.04569262,3.45709999 4.11685591,3.26771186 C4.19423682,3.07142312 4.23357886,2.86190517 4.23275086,2.65057804 C4.23348597,2.43224718 4.19419377,2.21567083 4.11685591,2.01184454 C4.04717951,1.81893733 3.94389581,1.64022858 3.81190397,1.48419513 C3.6852438,1.33761953 3.52934967,1.21983874 3.35447605,1.13860019 C2.81464222,0.877798002 2.1683364,1.02881197 1.7961716,1.50270914 Z"></path></clipPath><clipPath id="i33"><path d="M25.2169901,1.39778259 C25.7655982,0.477806499 26.3733784,-0.317886664 26.8983551,0.127049745 C27.831647,0.918047805 25.1610449,5.35505255 24.7700713,6.39941717 C24.4295458,7.31091884 27.9041663,6.00391814 29.4459898,5.89577388 C30.1480607,5.75707456 32.1599166,5.35531957 34.2375836,4.98564123 L34.8616141,4.87599516 C37.2517619,4.46163672 39.5644293,4.1287309 39.9076874,4.3261371 C40.6549515,4.74326498 40.7053997,5.29634566 39.7752608,5.53426304 C39.0248437,5.72892272 33.103485,7.119349 30.946824,7.6229923 C30.9594361,7.66933984 30.9972722,7.73113656 30.9972722,7.7774841 C33.7498527,7.68169918 42.4017208,7.40670376 42.9787222,7.58591426 C43.4012259,7.70641787 43.5399585,8.77241135 43.0449354,8.929993 C42.8620607,9.00105923 40.9387227,9.21734776 38.6748592,9.43054646 C38.2875116,9.47040534 37.8897353,9.51075088 37.4882133,9.55103037 L36.2790926,9.67111801 C34.401549,9.8558933 32.5879674,10.0271938 31.5175194,10.1288494 C31.5117658,10.1522027 31.5117658,10.1765624 31.5175194,10.1999157 C33.1648681,10.1502153 36.5456119,10.0577468 39.1004317,10.0518646 L39.6343187,10.0519765 C41.1058952,10.0563159 42.2056302,10.0959788 42.3607316,10.1999157 C42.5360371,10.3350919 42.635488,10.5437672 42.6287377,10.7622658 C42.6524242,11.2011189 42.3157941,11.5789126 41.8688615,11.6150606 C41.4956594,11.653824 39.221894,11.8644947 36.8046866,12.0866147 L36.1984132,12.1422903 C34.376729,12.3094758 32.5567239,12.47558 31.4796832,12.5729098 C31.4776838,12.6181385 31.4691923,12.6628657 31.4544591,12.7057728 C33.6205792,12.7891984 38.7852147,13.0425649 38.9807015,13.4967709 C39.1415052,13.8459223 39.3243799,14.757424 37.1960961,14.6245611 C36.759525,14.5973071 36.2002331,14.5852647 35.5869373,14.5833399 L35.1179134,14.5837138 C32.8124024,14.5939207 30.0229912,14.720346 30.0229912,14.720346 L30.0229912,14.6956273 L29.8779526,14.7666935 C26.6461141,15.6596562 22.7552959,14.4669794 22.2161306,14.7327053 C22.101148,14.7887186 21.9820525,14.8362286 21.8598401,14.8748378 L22.2413547,17.5382766 C22.2413547,17.5382766 22.2336298,17.5402609 22.2184308,17.5441485 L22.1506619,17.5614398 C21.3135561,17.774601 14.8132762,19.416279 8.15369199,20.7053586 L7.0280663,20.9185573 L6.61186856,20.9927134 C6.29656725,21.0514203 5.98126593,21.1101272 5.66596462,21.1595646 L5.26237894,21.2306308 C3.91919534,21.4592787 2.63276598,21.6632079 1.39678482,21.830059 C1.16346185,21.8547777 0.920679838,21.8764066 0.687356865,21.9134846 C0.454033893,21.9505626 0.22071092,21.9752813 0,22 L0.428809788,11.494557 C0.649520708,11.4698383 0.885996693,11.4482095 1.11616665,11.4111314 L1.46496873,11.363239 L1.82559461,11.3153465 C2.80302869,11.1948429 3.83091097,11.0527104 4.8461812,10.9198475 C5.28760304,10.8580508 5.70380078,10.8117032 6.10738646,10.7622658 C6.68438787,10.6788403 7.23301215,10.6201334 7.75956535,10.5583367 C8.20098719,10.5119891 8.62979698,10.4749111 9.02077061,10.4409229 C11.3719245,10.2428118 13.7091775,9.90956582 16.0204598,9.4429058 C18.9937512,8.86819627 20.9391603,8.2811274 20.9391603,8.2811274 L20.9643844,8.48505659 C21.2858562,8.17038472 21.514624,7.77646147 21.6265172,7.34490704 C21.9922667,5.71656338 23.6066094,3.83176331 24.1110915,3.24469444 C24.3582089,2.95270492 24.680703,2.33005466 25.036507,1.70751302 Z"></path></clipPath><clipPath id="i34"><path d="M17.8253174,0 C17.8253174,0 19.3836597,4.89908689 19.1315302,7.03743047 C18.8794008,9.17577406 17.5215469,8.72592079 16.1697685,11.3788226 C14.8179901,14.0317243 14.5749737,16.5244044 11.3701956,16.7031132 C8.16541754,16.881822 -0.0272710814,18.1728393 0,13.4925167 C0.0274075968,9.17269287 4.87254603,6.57217128 6.13623104,5.11785114 C7.39991604,3.66353101 9.33797142,0 9.33797142,0 Z"></path></clipPath><clipPath id="i35"><path d="M0.835466424,0 L8.76114493,0.655209529 C8.76114493,0.655209529 9.13913883,2.32278202 9.06597872,2.3638932 C8.99281861,2.40500439 -0.0515999014,3.76424298 0.000221842717,2.3793099 C0.0428985731,1.28215512 0.835466424,0 0.835466424,0 Z"></path></clipPath><clipPath id="i36"><path d="M10.6939466,0.0551706921 C11.4388463,0.461512083 11.4836042,0.99126086 10.5596728,1.21399614 C10.1362042,1.31608314 8.09017216,1.78110784 5.99788427,2.25493199 L5.42729777,2.38410885 C3.14983882,2.89956043 0.987871297,3.3871701 0.987871297,3.3871701 C0.987871297,3.3871701 8.43447071,3.13260014 11.9608279,3.11985837 L12.4163282,3.11966641 C13.1314387,3.12200009 13.6173697,3.13799038 13.7406823,3.17346463 C14.1467006,3.2878422 14.3001563,4.30520065 13.8142132,4.46773721 C13.3543027,4.62156645 2.59676285,5.59770048 1.44548919,5.70184479 L1.35726368,5.70981855 C1.34975558,5.7104963 1.34593468,5.71084087 1.34593468,5.71084087 C1.34593468,5.71084087 4.16168757,5.61903782 7.04217961,5.56975011 L7.68223649,5.55955172 C8.42760382,5.54859746 9.16362556,5.54116965 9.84236196,5.53960894 L10.4089888,5.53976263 C11.8766196,5.54429519 12.9734036,5.58297432 13.1268594,5.68375144 C13.3645516,5.89507868 13.4499281,6.21729412 13.3455155,6.5089707 C13.2411028,6.80064728 12.9659847,7.0084745 12.6409162,7.04123268 C12.247324,7.08098656 9.71049916,7.30624959 7.13993323,7.53316793 L6.52342964,7.58756598 C4.06346443,7.80453225 1.72793198,8.00946888 1.3831753,8.03971377 L1.33954069,8.04354145 C1.33954069,8.04354145 3.38561716,8.10298769 5.46326396,8.23128622 L6.02916411,8.26799088 C7.90801687,8.39607712 9.66160798,8.58177277 9.77640914,8.83214474 C9.92986488,9.16624766 10.0961086,10.0361192 7.99568321,9.90970191 C7.5534884,9.88308774 6.98121753,9.87168167 6.35323813,9.87025986 L5.87297023,9.87098393 C3.59382032,9.88233734 0.859991517,10 0.859991517,10 L0,1.62033753 C0,1.62033753 9.94904685,-0.351170699 10.6939466,0.0551706921 Z"></path></clipPath><clipPath id="i37"><path d="M5.11785152,0.184327148 L5.69174716,0.242897473 C7.89366664,0.475677375 10.0568489,0.791868356 10.0568489,0.791868356 C10.0568489,0.791868356 14.099166,5.31344901 18.2036726,6.26011603 C22.3081792,7.20678305 25.1782244,8.41502912 25.2093802,11.0090213 C25.2404139,13.6030135 13.3933153,15.3095054 8.70111797,12.696829 C1.692362,8.79182751 0.98029229,9.96893322 0.202923616,8.02577459 C-0.574445059,6.08261596 1.13576603,0.86349119 1.08601443,0.240683937 C1.05690445,-0.119351659 3.02058911,-0.0215661278 5.11785152,0.184327148 Z"></path></clipPath><clipPath id="i38"><path d="M0.555816975,0 L8.6084369,1.33278967 C8.6084369,1.33278967 9.14862825,3.54867471 9.06697142,3.59429587 C8.98531459,3.63991703 -0.273313938,4.7869634 0.0062036805,3.00773807 L0.0362160034,2.8192881 L0.0987233273,2.44140631 C0.311214569,1.18518926 0.555816975,0 0.555816975,0 Z"></path></clipPath><clipPath id="i39"><path d="M45.5704629,9.73496221 C45.5704629,9.73496221 46.6350934,19.889974 47.8823002,30.7733223 L48.0165879,31.941753 L48.2883908,34.2850301 C49.1543868,41.7026342 50.0609356,48.9905434 50.7324354,53.2033512 C52.7972244,66.1648797 53.4970992,76.8749334 54.0734667,83.582711 C54.3780547,87.1274776 54.5792956,96.5051223 54.7478118,106.373435 L54.7716706,107.785955 L54.7951298,109.20169 C55.0046029,121.947385 55.1710984,134.663137 55.4447146,135.994803 C55.9514113,138.460852 44.1960481,136.675843 44.1960481,136.675843 C44.1960481,136.675843 42.5690257,121.442269 40.7194954,105.786104 L40.5092395,104.012699 L40.2975353,102.240458 C38.7762145,89.5549803 37.178204,77.3271253 36.2535775,73.4666236 C35.3902297,69.8682135 33.519148,61.1563569 31.5210836,52.5754443 L31.2415485,51.3794852 C28.673213,40.433991 25.9641512,30.1017901 24.9574083,31.3572049 C24.0421874,32.4984911 23.0129597,43.0087421 22.0439023,54.0585384 L21.9279154,55.3865387 C21.0025089,66.0222183 20.1389761,76.8296552 19.4914177,79.9971442 C18.8978226,82.9006759 17.7671492,94.5273361 16.6869464,106.638648 L16.5400141,108.292421 C15.2214316,123.189486 14.0190935,138.252498 14.0190935,138.252498 C14.0190935,138.252498 4.66103907,140.084153 2.17189159,138.013045 C2.17189159,138.013045 1.60197278,115.569202 1.58085226,98.1186079 L1.58039883,96.6564095 C1.58446229,90.1355243 1.672447,84.4485026 1.90587583,81.104223 C2.22256126,76.389809 -3.72162425,24.5685733 3.91682831,3.70511487 C7.93873327,-7.30658676 45.5704629,9.73496221 45.5704629,9.73496221 Z"></path></clipPath><clipPath id="i40"><path d="M26.6381993,0.00263492601 C27.1441266,-0.0286427175 30.2547121,0.223303129 33.4721973,0.505054092 L34.1623843,0.565793145 C37.7273986,0.881014304 41.2047565,1.21058158 41.2047565,1.21058158 C41.2047565,1.21058158 43.1367353,1.86101439 45.1125517,2.75923114 C48.4817725,4.2892969 53.7453973,6.68041181 57.5028927,8.4551642 C58.7240787,9.02816454 60.2583893,9.80248932 61.5108878,10.4653113 C61.3585005,14.9791086 61.0881695,19.8315438 60.699895,25.0226172 C60.699895,25.0226172 60.0795107,35.0411406 59.9509563,45.7667933 L59.9421564,46.5826084 C59.9408534,46.7187538 59.9396337,46.8549748 59.9384996,46.9912524 L59.9327397,47.8094467 C59.5029936,49.6529592 59.4310971,53.2318646 59.4254221,55.145823 L59.4258285,55.7788717 C59.4272118,56.094876 59.4300196,56.3108711 59.4311992,56.3912638 L59.4317403,56.4261329 C59.2657843,62.1499416 59.910821,68.0162261 60.076777,71.2931686 C60.1599508,72.9086037 60.2868518,75.0778624 60.4220283,77.2970477 L60.462794,77.9637972 C60.7493956,82.6344737 61.0568571,87.3031077 61.0568571,87.3031077 L55.0667832,88 L26.340731,87.3031077 L16.3457932,86.342945 C16.3457932,86.342945 16.608042,79.7409915 16.8476005,72.3910154 L16.875662,71.5232143 C16.8803157,71.3781233 16.8849565,71.2328329 16.889582,71.0873874 L16.9171361,70.2132047 C16.930805,69.7755352 16.9442987,69.3372633 16.9575592,68.8995805 L16.9837522,68.0253532 C17.1517622,62.3525709 17.273832,56.9135858 17.2225421,54.3261641 C17.1723061,51.8246237 16.5865203,48.2645448 15.8760559,44.7998531 L15.7162895,44.0319608 C14.6397251,38.9293997 13.3563154,34.223795 13.2020221,33.667179 L13.2020221,33.6300114 C13.2012206,33.6228061 13.2012206,33.6155356 13.2020221,33.6083303 C13.2020221,33.6083303 13.0881433,34.1518581 12.9066485,35.0574905 L12.8248602,35.4672595 C12.4679504,37.262596 11.9165028,40.1299579 11.4339489,43.0362783 L11.3195936,43.7340143 C10.8497486,46.6399564 10.4698717,49.5022118 10.4433942,51.2877136 C10.4112989,53.7424161 10.5934332,60.0281053 10.6561569,66.6204087 L10.6644448,67.5869158 C10.6656711,67.7482287 10.6668167,67.9096218 10.6678768,68.0710439 L10.6731718,69.039515 C10.6745687,69.362182 10.6755847,69.6845558 10.676181,70.0062274 L10.6766721,70.9687265 C10.6696268,78.9651785 10.3760724,86.2670611 9.19089575,86.4823234 C6.82054241,86.912848 1.15924936,85.2124308 1.15924936,85.2124308 C1.15924936,85.2124308 0.716906049,75.3886885 0.378707588,65.7867182 L0.342252625,64.7405933 C0.156308052,59.3451515 0.00976198741,54.1362115 0.000468248415,50.9125166 L0.000409606437,50.3138484 C0.00325590919,49.3589945 0.0210413874,48.6227975 0.0570507181,48.1656361 C0.143003425,47.0255203 1.11095772,39.070216 2.34573176,30.5254034 L2.51189545,29.3831483 C3.9926874,19.2720254 5.80567422,8.72698317 6.94579226,7.91933146 C8.41434671,6.87863895 17.6233417,3.2269233 22.4016233,1.43358712 C24.6091518,0.603510954 26.2937623,0.0212187207 26.6381993,0.00263492601 Z"></path></clipPath><clipPath id="i41"><path d="M36.4579321,0 L37.3098827,4.54834024 C25.5646934,9.34833045 0,5.62018271 0,5.62018271 L0,0 C2.55168483,0.249785898 5.15816769,0.424636027 7.74559625,0.541410935 L8.77937639,0.585063518 C23.0611005,1.14718337 36.4579321,0 36.4579321,0 Z"></path></clipPath><clipPath id="i42"><path d="M0,0 C0.937977803,0.271316999 3.58318447,1.38229447 6.33994478,2.58052887 L7.29621225,2.9976316 C10.3760783,4.3454104 13.3656704,5.69373802 14.0507802,5.99855607 L14.1589187,6.04638985 C14.18352,6.05714295 14.1964344,6.06259039 14.1969354,6.06238971 C15.5234324,6.70315538 17.4526002,7.72340362 18.3193278,8.38905339 C18.1733199,13.0174966 17.9434352,17.9725437 17.5520099,23.2821893 C17.5520099,23.2821893 17.2824393,32.7359998 16.7394292,43.1562116 L16.6959918,43.980713 L16.6514179,44.8083019 C16.5987517,45.7752623 16.5437642,46.7466315 16.4864522,47.7157777 L16.4367583,48.5457754 C16.1570993,50.3333466 16.0768713,52.1465164 16.1975539,53.9518469 C16.3808404,56.3593839 16.6448971,58.9877673 16.9555522,61.7281292 L16.9555522,61.8307761 C17.0301094,62.4808733 17.1077731,63.1340811 17.1885435,63.7966203 L17.1885435,63.8246149 C17.3233006,64.9355724 17.465655,66.0598013 17.6142721,67.190381 L17.7649273,68.3228213 C19.4440103,80.7973117 21.827043,93.7611162 23.1375875,98.0029311 C23.4482426,98.9951847 22.3764827,99.9158965 21.6122713,100.621983 L16.2627914,104 C16.2627914,104 15.4799801,96.7856377 14.6927117,89.4940218 L14.6083799,88.7128067 L14.5242267,87.9329512 L14.4404649,87.1564059 C13.9951573,83.0271264 13.5756253,79.1223161 13.3271013,76.7736803 C12.6188078,70.1140721 10.3945177,61.193121 9.42216742,52.4836848 L9.25837431,51.0457887 C8.03947647,40.5154306 6.44663239,30.3530614 5.5700449,24.2091222 C3.3888413,8.93826178 0.547246163,1.37142457 0.0695487369,0.17092252 L0.0394885466,0.0959814188 C0.0135302309,0.0318313077 0,0 0,0 Z"></path></clipPath><clipPath id="i43"><path d="M11.9074561,0 L12.09311,0.656172708 C12.09311,0.656172708 12.4612168,5.87702512 8.00232265,5.99748195 C3.54342847,6.11793877 0,1.87659055 0,1.87659055 L7.40054799,3.77854042 L11.9074561,0 Z"></path></clipPath><clipPath id="i44"><path d="M8.60793576,0.12245991 C9.23688236,0.661013398 8.1422106,2.96348795 7.31375357,4.62443909 L6.9309218,5.39031805 C6.75981039,5.73539107 6.62606483,6.01531217 6.56077625,6.19249627 C6.19080767,7.19653949 10.5256063,5.4325973 11.5276045,5.74082941 C12.5296028,6.04906152 14.5520977,13.449684 11.46286,14.3102925 C8.37362232,15.170901 4.63385654,14.0051122 4.11281744,14.2828263 C3.3846982,14.5650848 2.64038382,14.8045591 1.88375672,15 L0,9.81803834 C0,9.81803834 3.12623455,8.95742987 3.54553228,7.10498539 C3.90008551,5.530255 5.4508705,3.69612134 5.92566351,3.13764137 C6.56385932,2.3807942 7.71692808,-0.640490863 8.60793576,0.12245991 Z"></path></clipPath><clipPath id="i45"><path d="M12.4473068,0.109991838 C12.4473068,0.109991838 22.7316812,1.7577085 20.9736959,17.0457067 C19.5145682,29.7347452 13.0362277,30.9610478 10.5284454,30.9990419 L10.354202,30.9998622 C9.96435933,30.9976175 9.6936467,30.9686078 9.58520597,30.9621401 L9.56446815,30.9611172 C8.95704729,30.9397183 0.449941378,31.1475935 0,12.4541104 L0.000685402129,12.4377621 C0.0121599871,11.9075233 0.119812961,-1.33400713 12.4473068,0.109991838 Z"></path></clipPath><clipPath id="i46"><path d="M12.8447025,1.83930616 L12.8449247,2.00714116 C12.8449803,2.03427425 12.8450497,2.06448419 12.8451365,2.0976136 L12.8458933,2.33016454 C12.851847,3.87638458 12.8875693,8.61334569 13.1019028,9.79295745 C13.3805364,11.3132284 5.24810969,15.7121752 0,10.5864183 C0,10.5864183 1.05942004,3.44844471 0.731795926,0.925239295 C0.404171808,-1.59796612 12.8447025,1.83930616 12.8447025,1.83930616 Z"></path></clipPath><clipPath id="i47"><path d="M1.96610112,0.499646018 C2.32354066,1.60659756 0.67931875,6.28783738 0.467714539,6.73935709 L0.452847701,6.76976859 C0.404328592,6.8627563 0.242289332,7.12533362 0.0445061162,6.92870407 C-0.0675710392,6.81728066 0.0492697704,5.37095433 0.203820759,3.87531346 L0.259622637,3.34748592 C0.420400134,1.85803524 0.596392775,0.470515714 0.596392775,0.470515714 C0.596392775,0.470515714 1.60866157,-0.607305527 1.96610112,0.499646018 Z"></path></clipPath><clipPath id="i48"><path d="M0.0719157873,0.471428813 C0.488368477,-0.604140192 1.49380426,0.497242469 1.49380426,0.497242469 C1.49380426,0.497242469 2.22557113,6.7183336 1.95785154,6.94205195 C1.69013195,7.1657703 1.36291913,6.66957447 1.36291913,6.66957447 C1.17551542,6.37128333 -0.344536903,1.54699782 0.0719157873,0.471428813 Z"></path></clipPath><clipPath id="i49"><path d="M16.8880433,1.2215212 C16.8880433,1.2215212 18.5364529,1.6960773 18.9611386,2.11011953 C23.072725,6.69324851 22.078646,14.553681 22.078646,14.553681 C21.7326058,16.735365 21.4054405,18.3533147 21.4054405,18.3533147 L19.9426343,20.2865734 C19.9426343,20.2865734 19.9567276,19.602703 19.9593449,18.7390492 L19.9595789,18.294574 C19.9570212,17.0818016 19.9264858,15.6987732 19.8073641,15.3403612 C19.7224269,15.085566 19.6217607,14.6333045 19.5210945,14.1460086 C19.3512202,13.3402188 19.1813459,12.4325108 19.0618048,12.1299415 C18.8762014,11.6458306 10.4485502,9.1552073 2.94577001,12.6490867 C2.94577001,12.6490867 3.0086864,13.3083694 3.00554059,14.0440905 C3.00554059,14.8944696 2.90802017,15.8531366 2.52108434,15.9964589 C1.80383743,16.2608089 2.10269031,21 2.10269031,21 L0.932445344,19.6336606 L0.923850021,19.5701445 C0.869359984,19.1664075 0.564581043,16.8923229 0.262385729,14.3148105 L0.262385729,14.2925159 C0.186886054,13.6300483 0.111386379,12.9484711 0.0358867045,12.2700788 C-0.130841744,9.40363264 0.149136217,4.21536501 3.82974537,1.16419228 C6.31179718,0.0876824835 10.2786759,-0.826395361 16.8880433,1.2215212 Z"></path></clipPath><clipPath id="i50"><path d="M0,0 C0,0 1.66676044,2.3657339 5.53625918,2.27551523 C9.40575792,2.18529657 11.0921273,0.123632986 11.0921273,0.123632986 C11.0921273,0.123632986 9.25869082,4.03979136 5.53625918,3.99969417 C1.81382753,3.95959699 0,0 0,0 Z"></path></clipPath><clipPath id="i51"><path d="M3.45825323,0 L4.03350084,6.3320996 L0,9 C0,9 3.38380943,2.57402423 3.45825323,0 Z"></path></clipPath><clipPath id="i52"><path d="M0,0 L2.45730858,2.28692751 L5.04187605,10 L0.51509551,6.34212921 L0,0 Z"></path></clipPath><clipPath id="i53"><path d="M9.43879466,1.2473144 C11.4292196,2.71508998 16.2702064,11.949974 17.0558188,13.6597929 C17.4320275,14.4785794 19.5841643,18.5515406 21.7861066,22.6134267 L22.1748504,23.3294506 C24.4414391,27.497832 26.6532089,31.4509392 26.9272088,31.6268555 C27.4830373,31.9837143 34.7957532,30.6959196 38.6523956,30.3607827 C42.5502232,30.0206948 46.4067217,29.3099672 50.1695349,28.2382489 L51.4271357,37.3707299 L51.3990424,37.3780972 C50.5242189,37.6071233 29.4739799,43.0903612 24.2443271,41.8050879 C21.7757033,41.1844639 18.5245723,37.7927542 15.4349111,33.7897299 C14.62011,32.7346692 13.8172328,31.6379026 13.0421781,30.5407388 L12.4663522,29.7184369 C8.6780238,24.2507402 5.70635967,19.0095711 5.70635967,19.0095711 C5.70635967,19.0095711 -5.49715567,5.88958136 3.49236121,0.0402008682 C3.49236121,0.0402008682 3.82746965,0.00646549245 4.35505942,0.000802159765 L4.66106746,0.000868568106 C5.95459772,0.0152421756 8.04095688,0.216743214 9.43879466,1.2473144 Z"></path></clipPath><clipPath id="i54"><path d="M8.06700168,0 C7.35019186,2.40682151 6.43036301,4.7485492 5.31740703,7 C5.31740703,7 1.3591298,3.52213189 0.115642234,2.30171635 C-1.0826276,1.12567956 7.41208829,0.0788240125 8.03147029,0.00424415356 L8.06700168,0 Z"></path></clipPath><clipPath id="i55"><path d="M1.73994154,0 L6.05025126,4 C6.05025126,4 0.952354364,3.67320261 0,2.82352941 L1.73994154,0 Z"></path></clipPath><clipPath id="i56"><path d="M3.86243719,0 C3.86243719,0 7.00460637,5.28202677 9.07537688,7.0126673 L5.58807929,13 L0,2.49498088 L3.86243719,0 Z"></path></clipPath><clipPath id="i57"><path d="M25.3106901,0 C26.2549623,1.06381723 34.4787714,20.6255387 35.2594932,35.8819293 C35.4971042,40.5283075 34.4263118,50.3341992 33.6085597,58.3441171 C32.738348,66.8922014 31.7570455,73.5629612 31.0658135,80.7093099 C29.6710061,94.7892438 28.6958753,106 28.6958753,106 L14.8712357,99.757896 C12.6339893,98.6252435 9.53578883,93.9694787 10.3782278,91.5790188 C10.6798267,90.7230061 10.9887859,89.809768 11.3010351,88.8510345 L11.386,88.587 L11.2721721,88.5965244 C8.55613204,88.7640848 1.40348397,87.1976039 0.835617785,87.0720174 L0.799727516,87.0640534 C0.799727516,87.0640534 0.51960915,78.3561775 0.290939459,69.3546996 L0.251187541,67.7648684 L0.225479636,66.7066691 C0.103000241,61.6014344 0.00766669944,56.6679974 0.000440393685,53.453393 L0.00022247046,52.8133355 C0.00256084036,51.4818818 0.0234493153,50.5172696 0.068379394,50.0588583 C0.19085706,48.806276 1.21725015,38.9632336 2.48172863,29.0680174 L2.63770738,27.8566781 C3.92051215,17.9714274 5.41422558,8.38250428 6.45301764,7.62819529 C7.20733825,7.0832497 10.8830797,5.65491863 14.6434611,4.22080998 L15.327468,3.96019465 L16.0095512,3.70062419 C17.9358166,2.96776185 19.793292,2.26159662 21.1941568,1.70210756 C22.008823,1.38922014 24.5885995,0.278469803 25.3106901,0 Z M14.8249478,35.2592833 C14.8372913,35.2530256 12.6586762,44.295472 12.1340805,51.432434 C11.8139537,55.8107303 13.1684993,75.6710627 12.6699785,84.4055734 L12.668,84.426 L12.808426,83.9477536 C15.3072819,75.353428 17.5998902,65.0485271 17.6022192,59.0387272 C17.6022192,59.0387272 17.572865,58.6677566 17.5190153,58.0169199 L17.4900716,57.6686012 C17.1136353,53.1572341 15.8606608,38.8507993 14.8249478,35.2592833 Z"></path></clipPath><clipPath id="i58"><path d="M9.07537688,0 L9.07537688,7 L0,7 L0,0 L9.07537688,0 Z"></path></clipPath><clipPath id="i59"><path d="M37.3098827,0 L30.2187146,20 L0,20 L7.09116819,0 L37.3098827,0 Z"></path></clipPath><clipPath id="i60"><path d="M30.2187146,0 L37.3098827,20 L7.09116819,20 L0,0 L30.2187146,0 Z"></path></clipPath><clipPath id="i61"><path d="M17.1423786,0 L16.9025613,1 L0,1 L0.23678157,0 L17.1423786,0 Z"></path></clipPath><clipPath id="i62"><path d="M17.1423786,0 L16.9025613,1 L0,1 L0.23678157,0 L17.1423786,0 Z"></path></clipPath><clipPath id="i63"><path d="M14.1172529,0 L13.8769855,1 L0,1 L0.240267451,0 L14.1172529,0 Z"></path></clipPath><clipPath id="i64"><path d="M9.07537688,0 L8.82803957,1 L0,1 L0.247337316,0 L9.07537688,0 Z"></path></clipPath><clipPath id="i65"><path d="M8.26431892,3.14990261 L8.27279397,3.17753443 C8.30928528,3.29639403 8.46209264,3.79298419 8.70156685,4.55598381 C9.18436145,6.07923844 10.7329479,7.81467199 9.77950448,9.89212529 C8.82606106,11.9695786 1.64790741,10.6648366 0.557824014,9.69578062 C-0.532259386,8.72672466 -0.0828656725,5.54720771 2.42220064,1.4619718 C4.92726695,-2.62326411 8.26431892,3.14990261 8.26431892,3.14990261 Z"></path></clipPath><clipPath id="i66"><path d="M0.40004997,12.232081 C-0.623863164,11.2050194 0.620143447,3.63670278 0.795580277,0.88743428 C0.993345431,-2.12799348 11.0921273,3.50832009 11.0921273,3.50832009 C11.0136986,5.90094008 10.8007236,8.28748224 10.4541752,10.6570445 C10.3946589,11.0591473 10.3264614,11.4721007 10.2510464,11.8870565 L10.1571775,12.3853985 C9.60668371,15.2083649 8.74952048,17.960271 8.04590599,17.8590007 C6.77000177,17.6930426 8.02676742,14.4897377 8.28194827,11.1862317 C8.50788964,8.31466908 8.0225341,8.65509005 7.96790836,8.70177745 C7.98647571,8.71263771 8.03499365,8.90138222 7.21018872,11.837539 L7.06025961,12.3652052 C6.10113291,15.7111268 4.9712958,19.0731566 4.31069639,18.9987885 C3.44627129,18.9017187 3.35376823,18.8203053 3.49411769,17.489509 C3.24212661,18.2347549 2.99332529,18.2754616 2.66159019,18.2003108 C0.988523699,17.8302365 1.54911074,12.6893841 1.81090541,10.4604911 L1.823,10.351 L1.80821713,10.4688156 C1.60238413,12.0233251 1.26649526,13.0947501 0.40004997,12.232081 Z"></path></clipPath><clipPath id="i67"><path d="M0,0 L12.1005025,12.6664166 L11.9592635,37 C11.9592635,37 7.12336103,36.7841127 0.460562136,34.310661 L0,0 Z"></path></clipPath><clipPath id="i68"><path d="M37.3098827,0 L37.3098827,27.2574381 L5.69638045,27.2574381 L0,33 L0,0 L37.3098827,0 Z"></path></clipPath><clipPath id="i69"><path d="M7.05862612,0 C8.93094519,-0.000824721523 10.726818,0.736408059 12.0507477,2.04934161 C13.3746773,3.36227517 14.1180846,5.14323209 14.1172529,7 C14.1172529,10.8659934 10.9569977,14 7.05862612,14 C3.16025456,14 0,10.8659934 0,7 C0,3.13400729 3.16025456,0 7.05862612,0 Z"></path></clipPath><clipPath id="i70"><path d="M319.688442,0 C321.897581,-4.05812251e-16 323.688442,1.790861 323.688442,4 L323.688442,19 L0,19 L0,4 C-2.705415e-16,1.790861 1.790861,4.05812251e-16 4,0 L319.688442,0 Z"></path></clipPath><clipPath id="i71"><path d="M40.7457836,0 C41.075829,-6.06283502e-17 41.3433836,0.267554634 41.3433836,0.5976 L41.3433836,3.4024 C41.3433836,3.73244537 41.075829,4 40.7457836,4 L0.5976,4 C0.267554634,4 4.04189002e-17,3.73244537 0,3.4024 L0,0.5976 C-4.04189002e-17,0.267554634 0.267554634,6.06283502e-17 0.5976,0 L40.7457836,0 Z"></path></clipPath><clipPath id="i72"><path d="M51.4271357,0 L51.4271357,119 L51.1179297,119 L51.1179297,0.31198385 L0,0.31198385 L0,0 L51.4271357,0 Z"></path></clipPath><clipPath id="i73"><path d=""></path></clipPath><clipPath id="i74"><path d="M33.9975517,1.79360588 C45.3058721,7.0747416 39.3787089,24.194941 39.3787089,24.194941 C38.6464928,31.1753598 36.7907036,34.9622448 34.8623241,37.0218877 C34.7581727,38.180631 34.5309332,41.5108531 35.0611587,44.1669537 C35.6324135,44.2415109 36.2226049,44.344027 36.8285769,44.4589694 C37.0400359,44.4869284 37.257807,44.5055677 37.4597977,44.5428463 C42.5348128,45.2325005 47.2437199,47.1243897 50.1978332,49.9202851 C52.0914956,50.0134816 53.9504408,50.134637 55.7273273,50.2744318 C59.3789396,50.5322755 62.8759027,50.8677829 66.0888165,51.3555113 L65.2713856,59.7929023 L65.1861708,60.7248674 L0,60.7248674 C0.164117405,60.4142124 0.34401533,60.1035573 0.542849878,59.7929023 C1.00995326,59.006945 1.54964704,58.2023485 2.12090185,57.3884323 C1.9220673,48.3328378 6.0849684,43.881151 9.4493752,41.2064111 C12.813782,38.5316712 13.0315532,30.5229842 11.4819061,25.2667009 C9.9322591,20.0104176 9.45884351,12.4615 11.2736033,8.31736177 C13.088363,4.1732235 22.6892312,-3.48752984 33.9975517,1.79360588 Z"></path></clipPath><clipPath id="i75"><path d="M0.168176729,0 L50.4187605,0.22879629 L50.2505837,36.3847938 L50.2163255,44 L42.5798563,36.3476917 L0,36.1529056 L0.168176729,0 Z"></path></clipPath><clipPath id="i76"><path d="M13.8483296,0 L13.4863846,2.61869935 C14.4777991,2.3688476 15.9098423,2.20122554 16.948467,2.89701522 C17.4898108,3.25756078 18.1318697,3.99762799 18.1507538,5.49041313 C18.1507538,7.98576794 17.2915279,10.2091322 15.790243,11.5880609 C14.7695873,12.528137 13.4388162,13.0553778 12.0543414,13.0681953 L11.8560585,14.5040522 L11.6451862,16 L2.22202743,16 L0,0 L13.8483296,0 Z M16.0923884,4.15576201 C15.3779405,3.67819727 13.9742235,4.01027871 13.2345968,4.26329314 L12.2274455,11.537458 C13.1655273,11.4862678 14.0562475,11.1069863 14.7453236,10.4653093 C15.9381684,9.37418462 16.6179955,7.56196877 16.5991114,5.48408776 C16.5991114,4.49416881 16.2182823,4.2379917 16.0923884,4.15576201 Z"></path></clipPath><clipPath id="i77"><path d="M4.86254878,0 C4.86254878,0 3.11778713,14.4407986 11.0921273,16 L2.1164978,16 L0,0 L4.86254878,0 Z"></path></clipPath><clipPath id="i78"><path d="M1.76509178,0 C0.616407488,1.62600459 1.39826253,2.54477612 2.6835037,5.79362801 C3.96874487,9.04247991 1.21350911,11 1.21350911,11 C2.7022468,7.81113662 1.1224712,6.17250287 0.20405928,3.57405281 C-0.714352638,0.975602755 1.76509178,0 1.76509178,0 Z"></path></clipPath><clipPath id="i79"><path d="M1.7679737,0 C0.620221268,1.18309859 1.38051588,1.85602504 2.67813408,4.21596244 C3.97575228,6.57589984 1.21602906,8 1.21602906,8 C2.70737618,5.68075117 1.12099224,4.4913928 0.203521339,2.60093897 C-0.713949558,0.710485133 1.7679737,0 1.7679737,0 Z"></path></clipPath><clipPath id="i80"><path d="M1.7679737,0 C0.620221268,1.18309859 1.38051588,1.85602504 2.67813408,4.21596244 C3.97575228,6.57589984 1.21602906,8 1.21602906,8 C2.70737618,5.68075117 1.12099224,4.4913928 0.203521339,2.60093897 C-0.713949558,0.710485133 1.7679737,0 1.7679737,0 Z"></path></clipPath><clipPath id="i81"><path d="M2.11534603,0 L13.1088777,72.6759156 L10.9903978,73 L0,0.324084351 L2.11534603,0 Z"></path></clipPath><clipPath id="i82"><path d="M2.11534603,0 L13.1088777,72.6759156 L10.9903978,73 L0,0.324084351 L2.11534603,0 Z"></path></clipPath><clipPath id="i83"><path d="M10.9903978,0 L13.1088777,0.324084351 L2.11847988,73 L0,72.6759156 L10.9903978,0 Z"></path></clipPath><clipPath id="i84"><path d="M13.4863189,0.076999463 C22.4576259,-0.408057563 37.3098827,1.55720574 37.3098827,1.55720574 L28.8175811,91.9968706 L0,92 Z"></path></clipPath><clipPath id="i85"><path d="M29.2428811,0 L29.2428811,5 L0,5 L0,0 L29.2428811,0 Z"></path></clipPath><clipPath id="i86"><path d="M61.5108878,1.44344526 L4.56819857,88 L0,2.01478596 C0,2.01478596 38.1059198,-2.10948214 61.5108878,1.44344526 Z"></path></clipPath><clipPath id="i87"><path d="M9.04296794,8.2721478 C10.8289272,4.14061154 20.3322252,-3.47449786 31.4843407,1.79251662 C42.6364563,7.05953111 36.7829982,24.048507 36.7829982,24.048507 L22.1836385,42.7407001 C22.1836385,42.7407001 20.9136363,43.8840181 18.9814664,45.5447421 L18.4849805,45.9703402 C16.8713184,47.3499078 14.8743978,49.0210623 12.7958056,50.6732474 L12.137045,51.1939973 C6.30022606,55.7819857 0.0749278511,59.968003 0.00719854125,57.0113164 C-0.195397185,48.0200568 3.91885449,43.6015654 7.23830755,40.9418311 C10.5577606,38.2820968 10.7790575,30.3306637 9.25179739,25.1068467 C7.72453729,19.8830298 7.25700869,12.4036841 9.04296794,8.2721478 Z"></path></clipPath><clipPath id="i88"><path d="M4.39227712,0.202306819 C6.932658,-0.943410457 12.1441044,3.05270317 12.5999067,5.27310943 C13.023115,7.32804865 14.2811975,10.0285185 15.4928126,12.8065058 L15.7942382,13.5022888 C17.5908632,17.6827323 19.1176848,21.9310875 17.4001747,24.3303097 C14.4422406,28.4623036 7.73907753,32.6406202 5.96686703,31.9179845 C4.74465288,31.4196151 4.53513912,25.5497836 4.52281232,21.9544399 L4.52234027,21.4331527 C4.52448151,20.0936407 4.55164856,19.1792143 4.55164856,19.1792143 C6.46091851,8.57129285 0,4.28180149 0,4.28180149 C0,4.28180149 1.85189623,1.3480241 4.39227712,0.202306819 Z"></path></clipPath><clipPath id="i89"><path d="M4.2078401,0 C4.2078401,0 6.33316631,1.71715106 8.41262217,5.17303318 C10.492078,8.62891529 12.6816227,15.207731 11.9599292,18.494056 C11.2382357,21.780381 5.8469406,24.5272062 5.1650014,23.9137177 C4.4830622,23.3002293 4.28123266,14.5079226 3.19563438,11.3294976 C2.1100361,8.15107254 0,4.06012199 0,4.06012199 C0.538212105,0.705974134 4.2078401,0 4.2078401,0 Z"></path></clipPath><clipPath id="i90"><path d="M0,0 L6.05025126,8.26445183 L4.90664516,9 L0.229998992,2.61328904 L0,0 Z"></path></clipPath><clipPath id="i91"><path d="M22.426767,3.22652758 C48.8318604,-4.44751266 53.2718119,3.93206385 53.4388479,4.27031652 L53.4438861,4.2807736 L19.9500669,36.436832 L34.2865321,77.8603039 C34.2865321,77.8603039 36.0091795,107.068205 33.2075112,101.227869 C31.9193878,98.5426568 28.1936072,91.6133285 24.3029705,84.3836254 L23.7184226,83.29741 C19.3293022,75.1412936 14.8753612,66.8545803 13.5926775,64.0524799 C12.6568831,62.0081803 11.3967124,59.4178543 10.1200456,56.8647189 L9.73685858,56.1004772 C7.75768348,52.1636862 5.81284496,48.4563632 5.04885099,47.1503351 C3.74266776,44.9174482 0.145931339,36.1227351 0.000799869684,30.5063095 C-0.1443316,24.8898838 19.5052074,15.1559899 22.426767,11.6231773 C25.3483266,8.09036466 22.426767,3.22652758 22.426767,3.22652758 Z"></path></clipPath><clipPath id="i92"><path d="M24.5952016,0.463042521 C29.1842011,-0.154347507 33.8363213,-0.154347507 38.4253207,0.463042521 C45.8881541,1.49942697 52.5894102,5.13450676 53.8691098,10.5237059 C54.4483422,12.9630276 56.6466892,19.5361219 58.6820679,26.3344424 L59.1050925,27.7593082 C61.3886802,35.5203641 63.2991979,43.2197873 62.1996419,45.0739792 C61.213688,46.7366028 56.8521051,48.556725 52.4482517,50.033014 L51.7342693,50.2693191 C46.8600523,51.862394 42.1551768,53 42.1551768,53 L35.4383146,28.6960112 C35.4383146,28.6960112 0,24.7917808 0,20.6122125 C0,16.4326441 8.1058044,6.70919239 11.7545088,4.59620559 C15.4032132,2.48321878 24.5952016,0.463042521 24.5952016,0.463042521 Z"></path></clipPath><clipPath id="i93"><path d="M39.7875628,0 C39.7875628,0 39.1681624,4.16095746 40.8436405,5.92255329 C42.5191185,7.68414912 50.3328543,17.9627048 46.2045508,28.0585993 C42.6478161,36.7556976 35.9502032,37.1372002 35.13689,37.1511599 L23.6738618,37.1514059 C23.6738618,37.1514059 26.9783629,53.8385791 25.9129942,64.8384912 C25.5827299,68.2484639 24.8724025,73.0142392 24.0461603,78.0053358 L23.8848659,78.9738646 C23.830666,79.297443 23.7760545,79.6216556 23.7211023,79.946199 L23.5552951,80.9205177 L23.3036834,82.3817318 C21.6173287,92.1107191 19.7840274,101.454298 19.7189904,102.215901 C19.6105953,103.485241 14.9093464,107.451154 13.5249866,105.441882 L13.5243796,105.374475 C13.5188562,104.78175 13.4739547,100.366474 13.3215118,95.5673259 L13.2978303,94.8450044 C13.2937461,94.7242809 13.2895925,94.603425 13.2853686,94.4824903 L13.2591716,93.7563674 L13.2312336,93.0309338 L13.2015036,92.3087687 C13.0738241,89.3101386 12.8981453,86.4637858 12.657826,84.609231 C12.2831653,81.7179573 11.2903791,74.4394036 10.2775108,67.5169453 L10.1292123,66.5069953 C9.18995943,60.1337185 8.25851569,54.265094 7.81101803,52.6775976 C7.42612046,51.3121748 6.28383672,48.8276931 5.05805951,46.2800068 L4.73684065,45.6146535 L4.41449237,44.9505981 C2.80435841,41.6405084 1.25156798,38.5352958 1.25156798,37.9780247 C1.25156798,36.9192096 -4.22393141,20.3682583 7.73049598,16.1391899 C12.3956384,14.4888218 15.8863888,11.6823767 19.3514404,8.86815795 L20.0011169,8.34068118 L20.6518737,7.8147043 C25.6494506,3.79226309 30.8906317,0.0503658287 39.7875628,0 Z"></path></clipPath><clipPath id="i94"><path d="M12.9699291,0.710440198 C12.9699291,0.710440198 16.2045291,-0.466738949 18.8397858,0.209512902 C21.4750426,0.885764752 22.8868976,7.25380301 21.8334128,9.28882015 C19.3310002,14.1478149 18.2898729,25.8444673 13.4611434,27.2721101 C8.63241384,28.6997529 0.945990861,27.8606997 0.0686017425,26.1951164 C-0.808787376,24.5295331 7.01974792,15.2780321 7.01974792,15.2780321 C14.943839,8.26301133 13.0649569,1.05384394 12.9732814,0.722327787 Z"></path></clipPath><clipPath id="i95"><path d="M8.76496137,1.14672863 C11.389956,-1.10634545 14.8536685,0.655595313 14.8536685,0.655595313 C14.8536685,0.655595313 15.4458929,3.33227187 14.8824794,7.31966045 C14.3190659,11.307049 11.8061137,17.7746608 9.07227782,19.8681166 C6.33844192,21.9615723 0.160100824,20.6784866 0.00324138662,19.7760291 C-0.0480395832,19.4809949 0.514139118,18.5406411 1.3356479,17.2986114 L1.63578357,16.8482812 C2.2552844,15.9248065 2.98324253,14.8711602 3.69510353,13.8082087 L4.04911596,13.2765171 C5.16225541,11.5939154 6.1829984,9.93848717 6.61694745,8.78999081 C7.80459747,5.6467376 8.76496137,1.14672863 8.76496137,1.14672863 Z"></path></clipPath><clipPath id="i96"><path d="M2.01675042,0 L1.25217408,11 L0,10.8847305 L0.594349909,2.38443114 L2.01675042,0 Z"></path></clipPath><clipPath id="i97"><path d="M0.0496145421,29.7630562 C1.54394503,17.5895859 19.3727458,15.0389246 22.2707465,11.5259825 C25.1687473,8.01304032 22.2707465,3.19855156 22.2707465,3.19855156 C48.9748699,-4.56754882 52.9920554,4.25027524 52.9920554,4.25027524 C54.1612596,4.08989509 57.1624254,2.39973504 58.4379209,2.37814541 C58.4379209,2.37814541 59.7759407,5.25881965 60.7169312,7.85882864 C61.5516305,10.14733 67.0631464,21.7872279 63.1428736,31.9405251 C59.8374737,40.4992736 53.163629,40.9796255 52.0482796,40.9992664 L51.8918895,40.9990348 L40.3996638,40.9989194 C40.3996638,40.9989194 35.6103034,33.5104001 23.8776207,32.2242746 C20.9307175,31.9190056 17.9562739,31.9884551 15.0273077,32.4309183 L14.9085116,32.4494237 C1.34755624,34.4296868 1.86094692,38.9591763 2.25654658,40.200864 L2.28347016,40.2812142 L2.292,40.307 L2.23947988,40.1765024 C0.986282607,37.0449909 -0.266914666,32.3386116 0.0496145421,29.7630562 Z"></path></clipPath><clipPath id="i98"><path d="M51.54431,0 L55.4606365,37 L3.91632651,37 L0,0 L51.54431,0 Z"></path></clipPath><clipPath id="i99"><path d="M9.07537688,0 L9.07537688,3 L0,3 L0,0 L9.07537688,0 Z"></path></clipPath><clipPath id="i100"><path d="M139.155779,0 L139.155779,5 L0,5 L0,0 L139.155779,0 Z"></path></clipPath><clipPath id="i101"><path d="M13.0011957,0.229643866 C13.0058172,0.230641427 13.0245303,0.236091873 13.0603525,0.247582206 L13.1267171,0.2694213 C14.3611774,0.684844427 24.6011792,4.59855446 23.0289256,19.6602424 C21.3563155,35.6833146 13.7213052,34.8533603 13.0058172,34.9710404 C12.9414233,34.9816316 12.8093395,34.9960357 12.6201829,34.9993163 L12.4857398,34.9996915 C10.3695382,34.9759508 2.9029067,33.5398648 0.352976447,16.24752 C-2.48346283,-2.98778495 12.6972969,0.164671212 13.0011957,0.229643866 Z"></path></clipPath><clipPath id="i102"><path d="M12.6607595,3.67600298 C12.6607595,3.67600298 12.058808,9.03778852 13.0580475,12.3712979 C14.057287,15.7048073 -0.00730981385,15.7955789 0.00171945867,13.0536501 C0.00171945867,9.94237464 1.44038355,7.34129829 0.092012184,2.0045532 C-1.25635918,-3.33219189 12.6607595,3.67600298 12.6607595,3.67600298 Z"></path></clipPath><clipPath id="i103"><path d="M0.83594656,23 C-0.271770409,17.4971932 -2.62801583,-3.14928785 12.4137793,0.409694709 C27.0043206,3.86190779 24.0149745,19.8693371 23.8224823,20.8266758 L23.8132508,20.8714968 C17.6353542,18.7052016 11.7421624,9.89186535 10.9089178,8.60749872 L10.8450124,8.50839496 C10.8208616,8.47067829 10.8085284,8.45105459 10.8085284,8.45105459 C3.99638198,14.9054275 0.867238,23 0.83594656,23 Z"></path></clipPath><clipPath id="i104"><path d="M0,0 L0.0129193758,0.0124892709 C0.291827335,0.279075892 5.053662,4.68200042 11.0921273,0.501108671 C11.0921273,0.501108671 10.5772889,3.57666314 6.09885488,3.97441815 C1.62042086,4.37217316 0,0 0,0 Z"></path></clipPath><clipPath id="i105"><path d="M9.08170119,0 C15.9372472,0 18.1507538,5.03312883 18.1507538,5.03312883 C18.1507538,5.03312883 14.7609266,0.56400818 9.06589043,0.827402863 C3.37085427,1.09079755 0,7 0,7 C0,7 2.22615517,0 9.08170119,0 Z"></path></clipPath><clipPath id="i106"><path d="M16.1340034,0.642755249 C16.1340034,0.642755249 15.929153,11.6664127 7.13300351,11.9928115 C-1.663146,12.3192103 0.155676732,1.42180143 0.155676732,1.42180143 C0.155676732,1.42180143 6.58673593,-1.1678343 16.1340034,0.642755249 Z"></path></clipPath><clipPath id="i107"><path d="M3.02512563,0 L3.02512563,114 L0,114 L0,0 L3.02512563,0 Z"></path></clipPath><clipPath id="i108"><path d="M3.02512563,0 L3.02512563,114 L0,114 L0,0 L3.02512563,0 Z"></path></clipPath><clipPath id="i109"><path d="M301,0 C467.23771,0 602,17.6847524 602,39.5 C602,61.3152476 467.23771,79 301,79 C134.76229,79 0,61.3152476 0,39.5 C0,17.6847524 134.76229,0 301,0 Z"></path></clipPath></defs><g transform="translate(-654.0 -130.0)"><g clip-path="url(#i0)"><g transform="translate(654.0 130.0)"><g transform="translate(53.44388609715244 0.0)"><g transform="translate(146.214405360134 13.0)"><g clip-path="url(#i1)"><polygon points="0,0 323.688442,0 323.688442,288 0,288 0,0" stroke="none" fill="#E9E9E9"></polygon></g></g><g transform="translate(382.1742043551088 80.0)"><g clip-path="url(#i2)"><polygon points="0,0 51.4271357,0 51.4271357,199 0,199 0,0" stroke="none" fill="#FFFFFF"></polygon></g></g><g transform="translate(382.1742043551088 156.0)"><g clip-path="url(#i3)"><polygon points="0,0 51.4271357,0 51.4271357,123 0,123 0,0" stroke="none" fill="#AD0000"></polygon></g></g><g transform="translate(339.82244556113903 279.0) rotate(180.0)"><g clip-path="url(#i4)"><polygon points="0,0 51.4271357,0 51.4271357,245 0,245 0,0" stroke="none" fill="#FFFFFF"></polygon></g></g><g transform="translate(339.82244556113903 279.0) rotate(180.0)"><g clip-path="url(#i5)"><polygon points="0,0 51.4271357,0 51.4271357,155 0,155 0,0" stroke="none" fill="#AD0000"></polygon></g></g><g transform="translate(245.035175879397 279.0) rotate(180.0)"><g clip-path="url(#i6)"><polygon points="0,0 51.4271357,0 51.4271357,218 0,218 0,0" stroke="none" fill="#FFFFFF"></polygon></g></g><g transform="translate(245.035175879397 279.0) rotate(180.0)"><g clip-path="url(#i7)"><polygon points="0,0 51.4271357,0 51.4271357,138 0,138 0,0" stroke="none" fill="#AD0000"></polygon></g></g><g transform="translate(411.41708542713576 97.0) rotate(180.0)"><g clip-path="url(#i8)"><polygon points="0,0 47.3936348,0 47.3936348,4 0,4 0,0" stroke="none" fill="#FFC655"></polygon></g></g><g transform="translate(423.51758793969856 89.0) rotate(180.0)"><g clip-path="url(#i9)"><polygon points="0,0 59.4941374,0 59.4941374,4 0,4 0,0" stroke="none" fill="#FFC655"></polygon></g></g><g transform="translate(275.2864321608043 128.0) rotate(180.0)"><g clip-path="url(#i10)"><polygon points="0,0 44.3685092,0 44.3685092,4 0,4 0,0" stroke="none" fill="#FFC655"></polygon></g></g><g transform="translate(248.06030150753782 136.0) rotate(180.0)"><g clip-path="url(#i11)"><polygon points="0,0 17.1423786,0 17.1423786,4 0,4 0,0" stroke="none" fill="#FFC655"></polygon></g></g><g transform="translate(267.21943048576236 119.0) rotate(180.0)"><g clip-path="url(#i12)"><polygon points="4.54747351e-13,0 36.3015075,0 36.3015075,4 4.54747351e-13,4 4.54747351e-13,0" stroke="none" fill="#FFC655"></polygon></g></g><g transform="translate(100.83752093802339 287.0)"><g clip-path="url(#i13)"><polygon points="0,0 128.063652,0 128.063652,172 0,172 0,0" stroke="none" fill="#BAAFA3"></polygon></g></g><g transform="translate(106.88777219430479 287.0)"><g clip-path="url(#i14)"><polygon points="0,0 128.063652,0 128.063652,172 0,172 0,0" stroke="none" fill="#BAAFA3"></polygon></g></g><g transform="translate(106.8877721943048 233.0)"><g clip-path="url(#i15)"><polygon points="0,0 127.055276,0 127.055276,171 0,171 0,0" stroke="none" fill="#4D77EB"></polygon></g></g><g transform="translate(97.81239530988276 233.0)"><g clip-path="url(#i16)"><polygon points="0,0 127.055276,0 127.055276,171 0,171 0,0" stroke="none" fill="#F7F7F7"></polygon></g></g><g transform="translate(114.95477386934681 262.0)"><g clip-path="url(#i17)"><polygon points="0,0 37.3098827,0 37.3098827,7 0,7 0,0" stroke="none" fill="#DED7D5"></polygon></g></g><g transform="translate(114.95477386934681 249.0)"><g clip-path="url(#i17)"><polygon points="0,0 37.3098827,0 37.3098827,7 0,7 0,0" stroke="none" fill="#AD0000"></polygon></g></g><g transform="translate(122.01340033500838 328.0)"><g clip-path="url(#i18)"><polygon points="0,0 24.201005,0 24.201005,5 0,5 0,0" stroke="none" fill="#AD0000"></polygon></g></g><g transform="translate(128.0636515912898 324.0)"><g clip-path="url(#i19)"><polygon points="0,0 38.318258,0 38.318258,13 0,13 0,0" stroke="none" fill="#AD0000"></polygon></g></g><g transform="translate(182.5159128978224 245.0)"><g clip-path="url(#i20)"><polygon points="0,0 31.2596315,0 31.2596315,31 0,31 0,0" stroke="none" fill="#FFC655"></polygon></g></g><g transform="translate(182.5159128978224 245.0)"><g clip-path="url(#i21)"><polygon points="0,0 15.1256281,0 15.1256281,12 0,12 0,0" stroke="none" fill="#AD0000"></polygon></g></g><g transform="translate(181.5075376884423 255.0)"><g clip-path="url(#i22)"><polygon points="-2.77555756e-15,0 5.04187605,0 5.04187605,11 -2.77555756e-15,11 -2.77555756e-15,0" stroke="none" fill="#AD0000"></polygon></g></g><g transform="translate(183.5242881072028 265.0)"><g clip-path="url(#i23)"><polygon points="0,0 5.04187605,0 5.04187605,5 0,5 0,0" stroke="none" fill="#AD0000"></polygon></g></g><g transform="translate(97.81239530988277 232.0)"><g clip-path="url(#i24)"><polygon points="0,0 129.072027,0 129.072027,172 0,172 0,0" stroke="none" fill="#FFC655"></polygon></g></g><g transform="translate(217.8090452261307 232.0)"><g clip-path="url(#i25)"><polygon points="0,0 15.1256281,0 15.1256281,172 0,172 0,0" stroke="none" fill="#FFC655"></polygon></g></g><g transform="translate(111.92964824120611 334.0)"><g clip-path="url(#i26)"><polygon points="0,0 97.8123953,0 97.8123953,33 0,33 0,0" stroke="none" fill="#AD0000"></polygon></g></g><g transform="translate(154.2814070351758 282.0)"><g clip-path="url(#i27)"><polygon points="-1.77635684e-15,-2.22044605e-16 41.3433836,-2.22044605e-16 41.3433836,41 -1.77635684e-15,41 -1.77635684e-15,-2.22044605e-16" stroke="none" fill="#FFC655"></polygon></g></g><g transform="translate(154.2814070351758 289.0)"><g clip-path="url(#i28)"><polygon points="-1.59872116e-14,0 9.07537688,0 9.07537688,23 -1.59872116e-14,23 -1.59872116e-14,0" stroke="none" fill="#AD0000"></polygon></g></g><g transform="translate(157.3065326633166 310.0)"><g clip-path="url(#i29)"><polygon points="0,0 13.1088777,0 13.1088777,12 0,12 0,0" stroke="none" fill="#AD0000"></polygon></g></g><g transform="translate(167.3902847571189 317.0)"><g clip-path="url(#i30)"><polygon points="0,0 6.05025126,0 6.05025126,6 0,6 0,0" stroke="none" fill="#AD0000"></polygon></g></g><g transform="translate(109.91289782244561 364.0)"><g clip-path="url(#i31)"><polygon points="0,0 98.8207705,0 98.8207705,25 0,25 0,0" stroke="none" fill="#AD0000"></polygon></g></g><g transform="translate(125.03852596314908 311.0)"><g clip-path="url(#i32)"><polygon points="0,0 12.1005025,0 12.1005025,13 0,13 0,0" stroke="none" fill="#AD0000"></polygon></g></g><g transform="translate(101.8458961474037 278.0)"><g clip-path="url(#i33)"><polygon points="0,1.05748743e-14 43.360134,1.05748743e-14 43.360134,22 0,22 0,1.05748743e-14" stroke="none" fill="#243973" opacity="15%" style="mix-blend-mode:multiply"></polygon></g></g><g transform="translate(22.184254606365165 452.0)"><g clip-path="url(#i34)"><polygon points="-6.79176666e-05,0 19.159129,0 19.159129,17 -6.79176666e-05,17 -6.79176666e-05,0" stroke="none" fill="#202238"></polygon></g></g><g transform="translate(32.268006700167504 450.0)"><g clip-path="url(#i35)"><polygon points="3.37507799e-14,0 9.07537688,0 9.07537688,3 3.37507799e-14,3 3.37507799e-14,0" stroke="none" fill="#81807E"></polygon></g></g><g transform="translate(125.03852596314908 275.0)"><g clip-path="url(#i36)"><polygon points="0,7.10542736e-15 14.1172529,7.10542736e-15 14.1172529,10 0,10 0,7.10542736e-15" stroke="none" fill="#EEA886"></polygon></g></g><g transform="translate(72.6030150753769 450.0)"><g clip-path="url(#i37)"><polygon points="-3.80251386e-15,1.34336986e-14 25.2094411,1.34336986e-14 25.2094411,14 -3.80251386e-15,14 -3.80251386e-15,1.34336986e-14" stroke="none" fill="#202238"></polygon></g></g><g transform="translate(73.6113902847571 448.0)"><g clip-path="url(#i38)"><polygon points="1.24344979e-13,0 9.07537688,0 9.07537688,4 1.24344979e-13,4 1.24344979e-13,0" stroke="none" fill="#81807E"></polygon></g></g><g transform="translate(28.234505862646582 313.0)"><g clip-path="url(#i39)"><polygon points="-9.1038288e-15,-3.06421555e-14 55.4606365,-3.06421555e-14 55.4606365,139 -9.1038288e-15,139 -9.1038288e-15,-3.06421555e-14" stroke="none" fill="#160C0C"></polygon></g></g><g transform="translate(15.125628140703526 242.0)"><g clip-path="url(#i40)"><polygon points="-1.28230759e-14,1.22124533e-14 61.5108878,1.22124533e-14 61.5108878,88 -1.28230759e-14,88 -1.28230759e-14,1.22124533e-14" stroke="none" fill="#CAC7D1"></polygon></g></g><g transform="translate(38.31825795644892 325.0)"><g clip-path="url(#i41)"><polygon points="0,0 37.3098827,0 37.3098827,7 0,7 0,0" stroke="none" fill="#1C2033"></polygon></g></g><g transform="translate(58.48576214405361 243.0)"><g clip-path="url(#i42)"><polygon points="0,0 23.1926298,0 23.1926298,104 0,104 0,0" stroke="none" fill="#AD0000"></polygon></g></g><g transform="translate(45.37688442211056 247.0)"><g clip-path="url(#i43)"><polygon points="0,0 12.1005025,0 12.1005025,6 0,6 0,0" stroke="none" fill="#CAC7D1"></polygon></g></g><g transform="translate(114.9547738693468 271.0)"><g clip-path="url(#i44)"><polygon points="0,-1.77635684e-15 13.1088777,-1.77635684e-15 13.1088777,15 0,15 0,-1.77635684e-15" stroke="none" fill="#EEA886"></polygon></g></g><g transform="translate(39.32663316582916 208.0)"><g clip-path="url(#i45)"><polygon points="0,-3.55271368e-15 21.1758794,-3.55271368e-15 21.1758794,31 0,31 0,-3.55271368e-15" stroke="none" fill="#EEA987"></polygon></g></g><g transform="translate(42.35175879396988 233.0)"><g clip-path="url(#i46)"><polygon points="0,-1.09912079e-14 13.1088777,-1.09912079e-14 13.1088777,13 0,13 0,-1.09912079e-14" stroke="none" fill="#EEA987"></polygon></g></g><g transform="translate(58.4857621440536 221.0)"><g clip-path="url(#i47)"><polygon points="7.56339436e-15,-2.77555756e-16 2.01675042,-2.77555756e-16 2.01675042,7 7.56339436e-15,7 7.56339436e-15,-2.77555756e-16" stroke="none" fill="#EEA987"></polygon></g></g><g transform="translate(37.30988274706869 221.0)"><g clip-path="url(#i48)"><polygon points="-1.82909243e-14,1.16573418e-14 2.01675042,1.16573418e-14 2.01675042,7 -1.82909243e-14,7 -1.82909243e-14,1.16573418e-14" stroke="none" fill="#EEA987"></polygon></g></g><g transform="translate(38.31825795644891 205.0)"><g clip-path="url(#i49)"><polygon points="-2.40293896e-14,3.99680289e-15 22.1842546,3.99680289e-15 22.1842546,21 -2.40293896e-14,21 -2.40293896e-14,3.99680289e-15" stroke="none" fill="#160C0C"></polygon></g></g><g transform="translate(43.36013400335009 237.0)"><g clip-path="url(#i50)"><polygon points="0,0 11.0921273,0 11.0921273,4 0,4 0,0" stroke="none" fill="#C78D71"></polygon></g></g><g transform="translate(52.435510887772224 241.0)"><g clip-path="url(#i51)"><polygon points="0,0 4.03350084,0 4.03350084,9 0,9 0,0" stroke="none" fill="#A09EA6"></polygon></g></g><g transform="translate(55.46063651591291 241.0)"><g clip-path="url(#i52)"><polygon points="0,0 5.04187605,0 5.04187605,10 0,10 0,0" stroke="none" fill="#EAE6F2"></polygon></g></g><g transform="translate(67.56113902847571 251.0)"><g clip-path="url(#i53)"><polygon points="3.10862447e-14,-1.30589983e-14 51.4271357,-1.30589983e-14 51.4271357,42 3.10862447e-14,42 3.10862447e-14,-1.30589983e-14" stroke="none" fill="#AD0000"></polygon></g></g><g transform="translate(47.39363484087103 244.0)"><g clip-path="url(#i54)"><polygon points="-6.30051566e-15,0 8.06700168,0 8.06700168,7 -6.30051566e-15,7 -6.30051566e-15,0" stroke="none" fill="#EEA987"></polygon></g></g><g transform="translate(46.38525963149081 247.0)"><g clip-path="url(#i55)"><polygon points="0,0 6.05025126,0 6.05025126,4 0,4 0,0" stroke="none" fill="#A09EA6"></polygon></g></g><g transform="translate(39.32663316582916 240.0)"><g clip-path="url(#i56)"><polygon points="0,0 9.07537688,0 9.07537688,13 0,13 0,0" stroke="none" fill="#EAE6F2"></polygon></g></g><g transform="translate(14.117252931323279 242.0)"><g clip-path="url(#i57)"><polygon points="8.9928065e-15,0 35.2931323,0 35.2931323,106 8.9928065e-15,106 8.9928065e-15,0" stroke="none" fill="#AD0000"></polygon></g></g><g transform="translate(51.42713567839196 325.0)"><g clip-path="url(#i58)"><polygon points="0,0 9.07537688,0 9.07537688,7 0,7 0,0" stroke="none" fill="#3A3F66"></polygon></g></g><g transform="translate(0.0 341.0)"><g clip-path="url(#i59)"><polygon points="0,0 37.3098827,0 37.3098827,20 0,20 0,0" stroke="none" fill="#EDDAD3"></polygon></g></g><g transform="translate(0.0 341.0)"><g clip-path="url(#i59)"><polygon points="0,0 37.3098827,0 37.3098827,20 0,20 0,0" stroke="none" fill="#F7F7F7"></polygon></g></g><g transform="translate(0.0 362.0)"><g clip-path="url(#i60)"><polygon points="0,0 37.3098827,0 37.3098827,20 0,20 0,0" stroke="none" fill="#C1C5DB"></polygon></g></g><g transform="translate(0.0 382.0)"><g clip-path="url(#i59)"><polygon points="0,0 37.3098827,0 37.3098827,20 0,20 0,0" stroke="none" fill="#F7F7F7"></polygon></g></g><g transform="translate(0.0 402.0)"><g clip-path="url(#i60)"><polygon points="0,0 37.3098827,0 37.3098827,20 0,20 0,0" stroke="none" fill="#C1C5DB"></polygon></g></g><g transform="translate(9.075376884422115 344.0)"><g clip-path="url(#i61)"><polygon points="0,0 17.1423786,0 17.1423786,1 0,1 0,0" stroke="none" fill="#CAC7D1"></polygon></g></g><g transform="translate(8.067001675041878 347.0)"><g clip-path="url(#i62)"><polygon points="0,0 17.1423786,0 17.1423786,1 0,1 0,0" stroke="none" fill="#CAC7D1"></polygon></g></g><g transform="translate(7.058626465661643 350.0)"><g clip-path="url(#i63)"><polygon points="0,0 14.1172529,0 14.1172529,1 0,1 0,0" stroke="none" fill="#CAC7D1"></polygon></g></g><g transform="translate(9.075376884422115 385.0)"><g clip-path="url(#i61)"><polygon points="0,0 17.1423786,0 17.1423786,1 0,1 0,0" stroke="none" fill="#CAC7D1"></polygon></g></g><g transform="translate(8.06700167504188 387.0)"><g clip-path="url(#i64)"><polygon points="0,0 9.07537688,0 9.07537688,1 0,1 0,0" stroke="none" fill="#CAC7D1"></polygon></g></g><g transform="translate(15.12562814070353 327.0)"><g clip-path="url(#i65)"><polygon points="-1.97619698e-14,1.22124533e-14 10.0837521,1.22124533e-14 10.0837521,11 -1.97619698e-14,11 -1.97619698e-14,1.22124533e-14" stroke="none" fill="#EEA886"></polygon></g></g><g transform="translate(14.117252931323279 333.0)"><g clip-path="url(#i66)"><polygon points="2.03170814e-14,-1.80966353e-14 11.0921273,-1.80966353e-14 11.0921273,19 2.03170814e-14,19 2.03170814e-14,-1.80966353e-14" stroke="none" fill="#EEA886"></polygon></g></g><g transform="translate(13.108877721943049 296.0)"><g clip-path="url(#i67)"><polygon points="0,0 12.1005025,0 12.1005025,37 0,37 0,0" stroke="none" fill="#AD0000"></polygon></g></g><g transform="translate(74.61976549413737 171.0)"><g clip-path="url(#i68)"><polygon points="0,0 37.3098827,0 37.3098827,33 0,33 0,0" stroke="none" fill="#FEBD53"></polygon></g></g><g transform="translate(181.5075376884423 224.0)"><g clip-path="url(#i69)"><polygon points="0,-6.9119966e-07 14.1172536,-6.9119966e-07 14.1172536,14 0,14 0,-6.9119966e-07" stroke="none" fill="#FFC655"></polygon></g></g><g transform="translate(146.214405360134 0.0)"><g clip-path="url(#i70)"><polygon points="0,0 323.688442,0 323.688442,19 0,19 0,0" stroke="none" fill="#FEBD53"></polygon></g></g><g transform="translate(160.3316582914574 8.0)"><g clip-path="url(#i71)"><polygon points="0,0 41.3433836,0 41.3433836,4 0,4 0,0" stroke="none" fill="#F7F7F7"></polygon></g></g><g transform="translate(397.2998324958124 59.0)"><g clip-path="url(#i72)"><polygon points="0,0 51.4271357,0 51.4271357,119 0,119 0,0" stroke="none" fill="#FFC655"></polygon></g></g><g transform="translate(327.72194304857635 243.0)"><g opacity="15%" style="mix-blend-mode:multiply"><g transform="translate(0.0 136.68934495756048)"><g clip-path="url(#i73)"><polygon points="0.115197794,0.0465982564 0.2004126,0.0465982564 0.2004126,0.264056786 0.115197794,0.264056786 0.115197794,0.0465982564" stroke="none" fill="#243973"></polygon></g></g><g transform="translate(9.539324163855241 0.0)"><g clip-path="url(#i74)"><polygon points="0,-7.10542736e-15 66.0888165,-7.10542736e-15 66.0888165,60.7248674 0,60.7248674 0,-7.10542736e-15" stroke="none" fill="#243973" opacity="36.5283784%"></polygon></g></g></g></g><g transform="translate(275.2864321608042 217.0)"><g clip-path="url(#i75)"><polygon points="0,0 50.4187605,0 50.4187605,44 0,44 0,0" stroke="none" fill="#FFC655"></polygon></g></g><g transform="translate(398.3082077051927 319.0)"><g clip-path="url(#i76)"><polygon points="0,0 18.1507538,0 18.1507538,16 0,16 0,0" stroke="none" fill="#FEBD53"></polygon></g></g><g transform="translate(398.3082077051927 319.0)"><g clip-path="url(#i77)"><polygon points="0,0 11.0921273,0 11.0921273,16 0,16 0,0" stroke="none" fill="#DEA549"></polygon></g></g><g transform="translate(402.3417085427136 309.0)"><g clip-path="url(#i78)"><polygon points="4.52970994e-14,0 3.02512563,0 3.02512563,11 4.52970994e-14,11 4.52970994e-14,0" stroke="none" fill="#FDFDFD"></polygon></g></g><g transform="translate(406.3752093802345 311.0)"><g clip-path="url(#i79)"><polygon points="-7.39408534e-14,0 3.02512563,0 3.02512563,8 -7.39408534e-14,8 -7.39408534e-14,0" stroke="none" fill="#FDFDFD"></polygon></g></g><g transform="translate(398.3082077051927 311.0)"><g clip-path="url(#i80)"><polygon points="-7.46069873e-14,0 3.02512563,0 3.02512563,8 -7.46069873e-14,8 -7.46069873e-14,0" stroke="none" fill="#FDFDFD"></polygon></g></g><g transform="translate(376.1239530988274 377.0)"><g clip-path="url(#i81)"><polygon points="0,0 13.1088777,0 13.1088777,73 0,73 0,0" stroke="none" fill="#BAAFA3"></polygon></g></g><g transform="translate(363.0150753768846 377.0)"><g clip-path="url(#i82)"><polygon points="0,0 13.1088777,0 13.1088777,73 0,73 0,0" stroke="none" fill="#BAAFA3"></polygon></g></g><g transform="translate(305.5376884422111 377.0)"><g clip-path="url(#i83)"><polygon points="0,0 13.1088777,0 13.1088777,73 0,73 0,0" stroke="none" fill="#BAAFA3"></polygon></g></g><g transform="translate(350.9145728643217 287.0)"><g clip-path="url(#i84)"><polygon points="0,-4.21884749e-15 37.3098827,-4.21884749e-15 37.3098827,92 0,92 0,-4.21884749e-15" stroke="none" fill="#BAAFA3"></polygon></g></g><g transform="translate(349.9061976549415 374.0)"><g clip-path="url(#i85)"><polygon points="0,0 29.2428811,0 29.2428811,5 0,5 0,0" stroke="none" fill="#BAAFA3"></polygon></g></g><g transform="translate(326.7135678391961 287.0)"><g clip-path="url(#i86)"><polygon points="0,2.26485497e-14 61.5108878,2.26485497e-14 61.5108878,88 0,88 0,2.26485497e-14" stroke="none" fill="#BAAFA3"></polygon></g></g><g transform="translate(324.6968174204354 238.0)"><g clip-path="url(#i87)"><polygon points="-3.46389584e-14,-1.55431223e-14 38.318258,-1.55431223e-14 38.318258,58 -3.46389584e-14,58 -3.46389584e-14,-1.55431223e-14" stroke="none" fill="#160C0C"></polygon></g></g><g transform="translate(341.8391959798997 427.0)"><g clip-path="url(#i88)"><polygon points="0,-1.77635684e-14 18.1507538,-1.77635684e-14 18.1507538,32 0,32 0,-1.77635684e-14" stroke="none" fill="#D3C3BD"></polygon></g></g><g transform="translate(341.8391959798997 427.0)"><g clip-path="url(#i89)"><polygon points="0,0 12.1005025,0 12.1005025,24 0,24 0,0" stroke="none" fill="#DE9673"></polygon></g></g><g transform="translate(353.9396984924625 433.0)"><g clip-path="url(#i90)"><polygon points="0,0 6.05025126,0 6.05025126,9 0,9 0,0" stroke="none" fill="#D3C3BD"></polygon></g></g><g transform="translate(310.5795644891123 334.0)"><g clip-path="url(#i91)"><polygon points="-3.55271368e-15,-2.84217094e-14 53.4438861,-2.84217094e-14 53.4438861,102 -3.55271368e-15,102 -3.55271368e-15,-2.84217094e-14" stroke="none" fill="#DE9673"></polygon></g></g><g transform="translate(321.6716917922948 282.0)"><g clip-path="url(#i92)"><polygon points="0,-8.77076189e-15 62.519263,-8.77076189e-15 62.519263,53 0,53 0,-8.77076189e-15" stroke="none" fill="#AD0000"></polygon></g></g><g transform="translate(327.7219430485763 338.0)"><g clip-path="url(#i93)"><polygon points="4.52970994e-14,0 47.3936348,0 47.3936348,106 4.52970994e-14,106 4.52970994e-14,0" stroke="none" fill="#EEA886"></polygon></g></g><g transform="translate(327.7219430485763 440.0)"><g clip-path="url(#i94)"><polygon points="2.22044605e-14,1.58206781e-15 22.1842546,1.58206781e-15 22.1842546,28 2.22044605e-14,28 2.22044605e-14,1.58206781e-15" stroke="none" fill="#E6D3CC"></polygon></g></g><g transform="translate(332.7638190954775 440.0)"><g clip-path="url(#i95)"><polygon points="3.28626015e-14,-3.44169138e-15 15.1256281,-3.44169138e-15 15.1256281,21 3.28626015e-14,21 3.28626015e-14,-3.44169138e-15" stroke="none" fill="#EEA886"></polygon></g></g><g transform="translate(347.889447236181 449.0)"><g clip-path="url(#i96)"><polygon points="0,0 2.01675042,0 2.01675042,11 0,11 0,0" stroke="none" fill="#E6D3CC"></polygon></g></g><g transform="translate(310.5795644891123 334.0)"><g clip-path="url(#i97)"><polygon points="3.28626015e-14,-3.15303339e-14 64.5360134,-3.15303339e-14 64.5360134,41 3.28626015e-14,41 3.28626015e-14,-3.15303339e-14" stroke="none" fill="#160C0C"></polygon></g></g><g transform="translate(311.5879396984926 298.0)"><g clip-path="url(#i98)"><polygon points="0,0 55.4606365,0 55.4606365,37 0,37 0,0" stroke="none" fill="#160C0C"></polygon></g></g><g transform="translate(362.0067001675043 332.0)"><g clip-path="url(#i99)"><polygon points="0,0 9.07537688,0 9.07537688,3 0,3 0,0" stroke="none" fill="#FEBD53"></polygon></g></g><g transform="translate(280.3283082077053 335.0)"><g clip-path="url(#i100)"><polygon points="0,0 139.155779,0 139.155779,5 0,5 0,0" stroke="none" fill="#DBD5D2"></polygon></g></g><g transform="translate(338.814070351759 242.0)"><g clip-path="url(#i101)"><polygon points="-4.45754544e-14,-1.77635684e-14 23.1926298,-1.77635684e-14 23.1926298,35 -4.45754544e-14,35 -4.45754544e-14,-1.77635684e-14" stroke="none" fill="#EEA886"></polygon></g></g><g transform="translate(344.8643216080403 270.0)"><g clip-path="url(#i102)"><polygon points="-7.32747196e-15,-1.15463195e-14 13.1088777,-1.15463195e-14 13.1088777,15 -7.32747196e-15,15 -7.32747196e-15,-1.15463195e-14" stroke="none" fill="#EEA886"></polygon></g></g><g transform="translate(337.8056951423786 241.0)"><g clip-path="url(#i103)"><polygon points="-6.21724894e-14,1.2490009e-14 24.201005,1.2490009e-14 24.201005,23 -6.21724894e-14,23 -6.21724894e-14,1.2490009e-14" stroke="none" fill="#160C0C"></polygon></g></g><g transform="translate(345.8726968174204 275.0)"><g clip-path="url(#i104)"><polygon points="0,0 11.0921273,0 11.0921273,4 0,4 0,0" stroke="none" fill="#A77760"></polygon></g></g><g transform="translate(339.8224455611391 241.0)"><g clip-path="url(#i105)"><polygon points="0,0 18.1507538,0 18.1507538,7 0,7 0,0" stroke="none" fill="#FFFFFF" opacity="72%"></polygon></g></g><g transform="translate(342.8475711892798 281.0)"><g clip-path="url(#i106)"><polygon points="3.55271368e-15,-8.43769499e-15 16.1340034,-8.43769499e-15 16.1340034,12 3.55271368e-15,12 3.55271368e-15,-8.43769499e-15" stroke="none" fill="#EEA886"></polygon></g></g><g transform="translate(416.458961474037 340.0)"><g clip-path="url(#i107)"><polygon points="0,0 3.02512563,0 3.02512563,114 0,114 0,0" stroke="none" fill="#BAAFA3"></polygon></g></g><g transform="translate(281.3366834170855 340.0)"><g clip-path="url(#i108)"><polygon points="0,0 3.02512563,0 3.02512563,114 0,114 0,0" stroke="none" fill="#BAAFA3"></polygon></g></g></g><g transform="translate(0.0 429.0)"><g clip-path="url(#i109)"><polygon points="0,0 602,0 602,79 0,79 0,0" stroke="none" fill="#D7D7D7" opacity="16.1259969%"></polygon></g></g></g></g></g></svg>