<?xml version="1.0" encoding="UTF-8"?><svg version="1.1" width="12px" height="12px" viewBox="0 0 12.0 12.0" xmlns="http://www.w3.org/2000/svg" xmlns:xlink="http://www.w3.org/1999/xlink"><defs><clipPath id="i0"><path d="M1366,0 L1366,768 L0,768 L0,0 L1366,0 Z"></path></clipPath><clipPath id="i1"><path d="M6,0 C9.3,0 12,2.7 12,6 C12,9.3 9.3,12 6,12 C2.7,12 0,9.3 0,6 C0,2.7 2.7,0 6,0 Z M7.575,3.375 L6,4.95 L4.425,3.375 L3.375,4.425 L4.95,6 L3.375,7.575 L4.425,8.625 L6,7.05 L7.575,8.625 L8.625,7.575 L7.05,6 L8.625,4.425 L7.575,3.375 Z"></path></clipPath></defs><g transform="translate(-102.0 -308.0)"><g clip-path="url(#i0)"><g transform="translate(84.0 100.0)"><g transform="translate(0.0 194.0)"><g transform="translate(18.0 14.0)"><g clip-path="url(#i1)"><polygon points="0,0 12,0 12,12 0,12 0,0" stroke="none" fill="#FF637C"></polygon></g></g></g></g></g></g></svg>